<?xml version="1.0" encoding="UTF-8"?>
<svg width="31px" height="30px" viewBox="0 0 31 30" version="1.1" xmlns="http://www.w3.org/2000/svg" xmlns:xlink="http://www.w3.org/1999/xlink">
    <!-- Generator: Sketch 46.2 (44496) - http://www.bohemiancoding.com/sketch -->
    <title>Group</title>
    <desc>Created with Sketch.</desc>
    <defs></defs>
    <g id="Symbols" stroke="none" stroke-width="1" fill="none" fill-rule="evenodd">
        <g id="Footer" transform="translate(-135.000000, -261.000000)">
            <g id="Group" transform="translate(134.860130, 261.000000)">
                <rect id="Rectangle" fill="#ED3232" x="0.385362599" y="0" width="30" height="30" rx="4"></rect>
                <path d="M16.0422684,23.2939961 C16.9015015,23.7961607 17.8814672,24.06074 18.8768203,24.06074 C20.3795001,24.06074 21.7922881,23.4763773 22.8545505,22.4129312 C23.8691709,21.3983108 24.4278878,20.0484537 24.4278878,18.6137353 L24.4278878,18.306778 C24.4278878,17.9638476 24.2159712,17.656887 23.8948824,17.5374696 L19.5114225,15.8935078 C19.2083154,15.7804854 18.8692581,15.8536943 18.6419311,16.0823069 L17.483464,17.240774 C15.8138235,16.0412079 14.3650656,14.59245 13.1654337,12.9227437 L14.3239008,11.7642767 C14.5512311,11.5369463 14.6257223,11.1965837 14.5127,10.8947852 L12.8687381,6.51132528 C12.7480088,6.18895422 12.441045,5.97703767 12.0981145,5.97703767 L11.7911572,5.97703767 C10.3565375,5.97703767 9.00668038,6.53572168 7.99064618,7.55037494 C6.92848241,8.61253871 6.34283743,10.0252938 6.34283743,11.5281051 C6.34283743,12.5234583 6.60741337,13.5034239 7.10829896,14.362657 C9.26343434,18.054009 12.3508934,21.1413694 16.0422454,23.2939731 L16.0422684,23.2939961 Z" id="Fill-2" fill="#09132E"></path>
            </g>
        </g>
    </g>
</svg>