<?xml version="1.0" encoding="UTF-8"?>
<svg width="19px" height="20px" viewBox="0 0 19 20" version="1.1" xmlns="http://www.w3.org/2000/svg" xmlns:xlink="http://www.w3.org/1999/xlink">
    <!-- Generator: Sketch 46.2 (44496) - http://www.bohemiancoding.com/sketch -->
    <title>Group 2</title>
    <desc>Created with Sketch.</desc>
    <defs></defs>
    <g id="Page-1" stroke="none" stroke-width="1" fill="none" fill-rule="evenodd">
        <g id="Qué-es-ChileAtiende" transform="translate(-137.000000, -625.000000)">
            <g id="Group-6" transform="translate(137.000000, 625.000000)">
                <g id="Group-2" transform="translate(0.000000, 0.510958)">
                    <circle id="Oval-6-Copy-2" fill="#ED3232" cx="9.28591699" cy="9.28591699" r="9.28591699"></circle>
                    <path d="M11.093333,13.1634863 C11.093333,13.1634863 12.2007168,13.4125738 12.9667495,12.5081364 C12.9667495,12.5081364 13.4836763,12.1296326 13.0035184,11.5208115 L11.8038526,10.3398789 C11.8038526,10.3398789 11.5176308,10.0075162 11.0562209,10.3031101 L10.5854351,10.76452 C10.4376363,10.902943 10.2163072,10.9307014 10.0501258,10.8290454 C9.50616967,10.4966826 8.38941927,9.7029284 7.76180951,8.54035999 C7.66952752,8.36517187 7.6972841,8.15284949 7.83570707,8.01442652 L8.15869401,7.69143958 C8.15869401,7.69143958 8.70301005,7.2116471 8.16806617,6.66692501 L6.97744403,5.49503612 C6.97744403,5.49503612 6.55279926,5.19043175 6.12852362,5.55956153 C6.12852362,5.55956153 5.10400924,6.41785779 5.42703309,7.86661108 C5.43640525,7.86661108 5.46416182,9.39830742 8.08484628,11.6963133 C8.08475584,11.6963872 9.5057138,12.9238298 11.093333,13.1634863 Z" id="Page-1" fill="#FFFFFF"></path>
                </g>
            </g>
        </g>
    </g>
</svg>