<?xml version="1.0" encoding="UTF-8"?>
<svg width="70px" height="70px" viewBox="0 0 70 70" version="1.1" xmlns="http://www.w3.org/2000/svg" xmlns:xlink="http://www.w3.org/1999/xlink">
    <!-- Generator: Sketch 46.2 (44496) - http://www.bohemiancoding.com/sketch -->
    <title>Group 3</title>
    <desc>Created with Sketch.</desc>
    <defs></defs>
    <g id="Symbols" stroke="none" stroke-width="1" fill="none" fill-rule="evenodd">
        <g id="Clave-Unica-widget" transform="translate(-136.000000, -88.000000)" fill="#FFFFFF">
            <g id="Group-3" transform="translate(136.163241, 88.000000)">
                <path d="M46.9388965,12.4960148 C55.1135363,16.8218173 60.6912829,25.4032519 60.6912829,35.2972868 C60.6912829,49.5418904 49.1394435,61.0911227 34.8916243,61.0911227 C20.6438052,61.0911227 9.09196575,49.5418904 9.09196575,35.2972868 C9.09196575,25.3330814 14.7564131,16.7021148 23.0260108,12.4093336 L23.0260108,2.86615098 C9.78557155,7.70791277 0.318678102,20.3798724 0.318678102,35.2972868 C0.318678102,54.3877798 15.7968218,69.8624302 34.8916243,69.8624302 C53.9864269,69.8624302 69.4645706,54.3877798 69.4645706,35.2972868 C69.4645706,20.4500429 60.0843779,7.82761532 46.9388965,2.93219377 L46.9388965,12.4960148 Z" id="Fill-22"></path>
                <path d="M35.0707588,28.6333754 C38.5833949,28.6333754 41.4345873,31.4962999 41.4345873,35.0326105 C41.4345873,38.5689212 38.5833949,41.4318457 35.0707588,41.4318457 C31.5581226,41.4318457 28.7069302,38.5689212 28.7069302,35.0326105 C28.7069302,31.4962999 31.5581226,28.6333754 35.0707588,28.6333754 M35.0707588,49.0828356 C42.7862333,49.0828356 49.0432448,42.7910118 49.0432448,35.0326105 C49.0432448,28.9762654 45.2060493,23.8577035 39.8610907,21.8871192 L39.8610907,0 L29.9723009,0 L29.9723009,21.9821369 C24.7834594,24.0353453 21.0982727,29.0878079 21.0982727,35.0326105 C21.0982727,42.7910118 27.3552843,49.0828356 35.0707588,49.0828356" id="Fill-23"></path>
            </g>
        </g>
    </g>
</svg>