<?xml version="1.0" encoding="UTF-8"?>
<svg width="17px" height="17px" viewBox="0 0 17 17" version="1.1" xmlns="http://www.w3.org/2000/svg" xmlns:xlink="http://www.w3.org/1999/xlink">
    <!-- Generator: Sketch 47.1 (45422) - http://www.bohemiancoding.com/sketch -->
    <title>Combined Shape Copy</title>
    <desc>Created with Sketch.</desc>
    <defs></defs>
    <g id="Page-1" stroke="none" stroke-width="1" fill="none" fill-rule="evenodd">
        <g id="Home" transform="translate(-1127.000000, -34.000000)" fill-rule="nonzero" fill="#FFFFFF">
            <path d="M1132.46814,35.3204205 C1129.54444,36.5096946 1127.48348,39.3767063 1127.48348,42.7245532 C1127.48348,47.1379893 1131.0652,50.7157861 1135.48348,50.7157861 C1139.90176,50.7157861 1143.48348,47.1379893 1143.48348,42.7245532 C1143.48348,39.3658713 1141.40916,36.491142 1138.4704,35.3089263 L1138.4704,37.6796573 C1140.19436,38.7003184 1141.35015,40.5776093 1141.35015,42.7245532 C1141.35015,45.961073 1138.72355,48.5847907 1135.48348,48.5847907 C1132.24341,48.5847907 1129.61681,45.961073 1129.61681,42.7245532 C1129.61681,40.589426 1130.75991,38.7209916 1132.46814,37.6965881 L1132.46814,35.3204205 Z M1134.48348,38.8781338 L1134.48348,34.7157861 L1136.48348,34.7157861 L1136.48348,38.8865811 C1137.92192,39.3209022 1138.96927,40.655128 1138.96927,42.2337084 C1138.96927,44.1645866 1137.40227,45.7298727 1135.46927,45.7298727 C1133.53628,45.7298727 1131.96927,44.1645866 1131.96927,42.2337084 C1131.96927,40.6447524 1133.03044,39.3033737 1134.48348,38.8781338 Z M1135.48348,43.9817906 C1136.44998,43.9817906 1137.23348,43.1991475 1137.23348,42.2337084 C1137.23348,41.2682692 1136.44998,40.4856262 1135.48348,40.4856262 C1134.51698,40.4856262 1133.73348,41.2682692 1133.73348,42.2337084 C1133.73348,43.1991475 1134.51698,43.9817906 1135.48348,43.9817906 Z" id="Combined-Shape-Copy"></path>
        </g>
    </g>
</svg>