<?xml version="1.0" encoding="utf-8"?>
<!-- Svg Vector Icons : http://www.onlinewebfonts.com/icon -->
<!DOCTYPE svg PUBLIC "-//W3C//DTD SVG 1.1//EN" "http://www.w3.org/Graphics/SVG/1.1/DTD/svg11.dtd">
<svg version="1.1" xmlns="http://www.w3.org/2000/svg" xmlns:xlink="http://www.w3.org/1999/xlink" x="0px" y="0px" viewBox="0 0 1000 1000" enable-background="new 0 0 1000 1000" xml:space="preserve">
<metadata> Svg Vector Icons : http://www.onlinewebfonts.com/icon </metadata>
<g><path d="M879,360.5h-23.5V247c0-0.7-0.1-1.4-0.2-2.1c0-4.5-1.5-8.9-4.6-12.4L661.8,16.6c-0.1-0.1-0.1-0.1-0.2-0.1c-1.1-1.3-2.4-2.3-3.8-3.2c-0.4-0.3-0.8-0.5-1.3-0.7c-1.2-0.7-2.5-1.2-3.8-1.6c-0.4-0.1-0.7-0.2-1-0.3c-1.4-0.3-2.9-0.5-4.4-0.5H182.9c-21.2,0-38.4,17.2-38.4,38.4v312.1H121c-30.3,0-54.9,24.6-54.9,54.9v285.6c0,30.3,24.6,54.9,54.9,54.9h23.5v195.5c0,21.2,17.2,38.4,38.4,38.4h634.1c21.2,0,38.4-17.2,38.4-38.4V756H879c30.3,0,54.9-24.6,54.9-54.9V415.5C933.9,385.1,909.4,360.5,879,360.5z M182.9,48.4h445.1v196.6c0,10.6,8.6,19.2,19.2,19.2h169.8v96.3H182.9V48.4z M644.1,542.7c0,87.4-53,140.3-130.8,140.3c-79.1,0-125.3-59.7-125.3-135.6c0-79.9,51-139.5,129.6-139.5C599.4,407.9,644.1,469.1,644.1,542.7z M125,677.5V415.8c22.1-3.6,51-5.5,81.4-5.5c50.6,0,83.4,9.1,109.1,28.5c27.7,20.6,45.1,53.4,45.1,100.4c0,51-18.6,86.2-44.3,107.9c-28.1,23.3-70.8,34.4-122.9,34.4C162.1,681.4,140,679.4,125,677.5z M817.1,941.2H182.9V756h634.1V941.2z M820,632.8c18.2,0,38.4-4,50.2-8.7l9.1,47c-11.1,5.5-36,11.5-68.4,11.5c-92.1,0-139.5-57.3-139.5-133.2c0-90.9,64.8-141.5,145.5-141.5c31.2,0,55,6.3,65.6,11.9l-12.3,47.8c-12.2-5.1-29.2-9.9-50.6-9.9c-47.8,0-85,28.9-85,88.2C734.6,599.2,766.2,632.8,820,632.8z"/><path d="M296.6,541.1c0.4-55.4-32-84.6-83.8-84.6c-13.4,0-22.2,1.2-27.3,2.4v174.3c5.1,1.2,13.4,1.2,21,1.2C261,634.8,296.6,604.7,296.6,541.1z"/><path d="M451.5,546.2c0,52.2,24.5,88.9,64.8,88.9c40.7,0,64-38.7,64-90.5c0-47.8-22.9-88.9-64.4-88.9C475.3,455.7,451.5,494.5,451.5,546.2z"/></g>
</svg>