<?xml version="1.0" encoding="UTF-8"?>
<svg width="30px" height="30px" viewBox="0 0 30 30" version="1.1" xmlns="http://www.w3.org/2000/svg" xmlns:xlink="http://www.w3.org/1999/xlink">
    <!-- Generator: Sketch 46.2 (44496) - http://www.bohemiancoding.com/sketch -->
    <title>facebook</title>
    <desc>Created with Sketch.</desc>
    <defs></defs>
    <g id="Symbols" stroke="none" stroke-width="1" fill="none" fill-rule="evenodd">
        <g id="Footer" transform="translate(-1224.000000, -271.000000)" fill-rule="nonzero" fill="#FFFFFF">
            <g id="facebook" transform="translate(1224.000000, 271.018889)">
                <path d="M0,4 L0,25.6715826 L0,25.6715826 C2.705415e-16,27.8807216 1.790861,29.6715826 4,29.6715826 L25.6715826,29.6715826 L25.6715826,29.6715826 C27.8807216,29.6715826 29.6715826,27.8807216 29.6715826,25.6715826 L29.6715826,4 L29.6715826,4 C29.6715826,1.790861 27.8807216,-4.05812251e-16 25.6715826,0 L4,0 L4,0 C1.790861,4.05812251e-16 -2.705415e-16,1.790861 0,4 Z M19.6291539,8.16568474 L17.3099448,8.16568474 C16.8505896,8.16568474 16.3869955,8.64043006 16.3869955,8.99361971 L16.3869955,11.3584775 L19.6245891,11.3584775 C19.4942298,13.171835 19.2265986,14.8300526 19.2265986,14.8300526 L16.3704316,14.8300526 L16.3704316,25.1067237 L12.1142877,25.1067237 L12.1142877,14.828944 L10.0424286,14.828944 L10.0424286,11.3708026 L12.1142877,11.3708026 L12.1142877,8.54345942 C12.1142877,8.02645655 12.0095568,4.56492407 16.4751625,4.56492407 L19.6292192,4.56492407 L19.6292192,8.16568474 L19.6291539,8.16568474 Z" id="Shape"></path>
            </g>
        </g>
    </g>
</svg>