<?xml version="1.0" encoding="UTF-8"?>
<svg width="41px" height="40px" viewBox="0 0 41 40" version="1.1" xmlns="http://www.w3.org/2000/svg" xmlns:xlink="http://www.w3.org/1999/xlink">
    <!-- Generator: Sketch 46.2 (44496) - http://www.bohemiancoding.com/sketch -->
    <title>facebook</title>
    <desc>Created with Sketch.</desc>
    <defs></defs>
    <g id="Symbols" stroke="none" stroke-width="1" fill="none" fill-rule="evenodd">
        <g id="helpcenter/sidebar" transform="translate(0.000000, -198.000000)" fill-rule="nonzero" fill="#296AB0">
            <g id="facebook" transform="translate(0.500000, 198.244559)">
                <path d="M0,4 L0,35.5137756 L0,35.5137756 C2.705415e-16,37.7229146 1.790861,39.5137756 4,39.5137756 L35.5137756,39.5137756 L35.5137756,39.5137756 C37.7229146,39.5137756 39.5137756,37.7229146 39.5137756,35.5137756 L39.5137756,4 L39.5137756,4 C39.5137756,1.790861 37.7229146,-4.05812251e-16 35.5137756,0 L4,0 L4,0 C1.790861,4.05812251e-16 -2.705415e-16,1.790861 0,4 Z M26.1402297,10.8742779 L23.0517288,10.8742779 C22.4400035,10.8742779 21.8226333,11.5064983 21.8226333,11.9768425 L21.8226333,15.1261338 L26.1341507,15.1261338 C25.9605506,17.54099 25.604145,19.7492456 25.604145,19.7492456 L21.800575,19.7492456 L21.800575,33.4347332 L16.1326496,33.4347332 L16.1326496,19.7477693 L13.3735459,19.7477693 L13.3735459,15.1425473 L16.1326496,15.1425473 L16.1326496,11.3773621 C16.1326496,10.6888671 15.993179,6.07912925 21.9400456,6.07912925 L26.1403166,6.07912925 L26.1403166,10.8742779 L26.1402297,10.8742779 Z" id="Shape"></path>
            </g>
        </g>
    </g>
</svg>