<svg xmlns="http://www.w3.org/2000/svg" width="149" height="53" viewBox="0 0 149 53">
  <g fill="#FEFEFE" fill-rule="evenodd">
    <path d="M25.7807923 31.9297475C24.1595512 31.9297475 22.8400609 33.2425417 22.8400609 34.8542712 22.8400609 36.4678015 24.1595512 37.7805957 25.7807923 37.7805957 27.4020334 37.7805957 28.7215237 36.4678015 28.7215237 34.8542712 28.7215237 33.2425417 27.4020334 31.9297475 25.7807923 31.9297475M25.7807923 39.5814108C23.1757364 39.5814108 21.0545531 37.4600506 21.0545531 34.8542712 21.0545531 32.2484917 23.1757364 30.1289324 25.7807923 30.1289324 28.3876337 30.1289324 30.5070315 32.2484917 30.5070315 34.8542712 30.5070315 37.4600506 28.3876337 39.5814108 25.7807923 39.5814108M41.0938073 28.3515761C38.9593574 28.3515761 37.2205089 30.0826907 37.2205089 32.2075703 37.2205089 34.3342646 38.9593574 36.0653791 41.0938073 36.0653791 43.2300554 36.0653791 44.9671057 34.3342646 44.9671057 32.2075703 44.9671057 30.0826907 43.2300554 28.3515761 41.0938073 28.3515761M41.0938073 37.8799647C37.9667572 37.8799647 35.4223203 35.3359158 35.4223203 32.2075703 35.4223203 29.0810395 37.9667572 26.5369906 41.0938073 26.5369906 44.2208574 26.5369906 46.7652944 29.0810395 46.7652944 32.2075703 46.7652944 35.3359158 44.2208574 37.8799647 41.0938073 37.8799647"/>
    <g transform="translate(56.251 9.654)">
      <path d="M13.3684753 14.9109899L12.385172 12.4203969C11.3082208 13.2192663 9.76302995 13.8771588 8.21783909 13.8771588 5.642521 13.8771588 4.33144997 11.997466 4.33144997 8.33206491 4.33144997 4.85463314 5.642521 2.99843646 8.26466306 2.99843646 9.90350184 2.99843646 11.3316328 3.46835967 12.1510522 4.102756L13.3216513 1.61216298C12.0339923.74280504 10.0907977.272881828 7.9368953.272881828 3.46520661.272881828 1.10059636 3.42136735 1.10059636 8.35556107 1.10059636 13.6421972 3.48861859 16.6027134 7.9368953 16.6027134 10.0205618 16.6027134 11.7998724 15.9918133 13.3684753 14.9109899L13.3684753 14.9109899zM18.4956995 16.3677518L18.4956995 7.67417242C19.0107631 7.29823385 19.7365346 6.9692876 20.532542 6.9692876 21.913849 6.9692876 22.5693845 7.8621417 22.5693845 9.50687294L22.5693845 16.3677518 25.6831782 16.3677518 25.6831782 9.24841517C25.6831782 6.33489126 24.7701108 4.61967154 21.4924333 4.61967154 19.8770065 4.61967154 18.8234672 5.39504484 18.1913437 6.1939143 18.3318156 5.84147189 18.4956995 5.20707555 18.4956995 4.40820609L18.4956995.155401025 15.4287298.155401025 15.4287298 16.3677518 18.4956995 16.3677518zM32.1448854 16.3677518L32.1448854 4.85463314 27.7668446 4.85463314 27.7668446 6.78131831 29.1013276 7.06327224 29.1013276 16.3677518 32.1448854 16.3677518zM29.0076797 2.95144414L32.0980614 2.95144414 32.0980614.155401025 29.0076797.155401025 29.0076797 2.95144414zM38.138353 16.6027134C38.9343604 16.6027134 39.8240157 16.4147442 39.8240157 16.4147442L39.8240157 14.2530974C38.5597686 14.2530974 37.9744691 14.1121204 37.9744691 13.1487778L37.9744691.155401025 34.9543233.155401025 34.9543233 13.313251C34.9543233 15.3574169 35.7971547 16.6027134 38.138353 16.6027134L38.138353 16.6027134zM51.576831 11.4335581L44.4361763 11.4335581C44.4361763 13.2662586 45.4663035 14.2765935 47.3860861 14.2765935 48.5566852 14.2765935 49.7506964 13.8301665 50.7574116 13.313251L51.3427112 15.4748977C50.3828199 15.9918133 48.8142171 16.6027134 47.0114944 16.6027134 43.476285 16.6027134 41.3692066 14.3940743 41.3692066 10.5876963 41.3692066 7.03977608 43.0782813 4.61967154 46.7539626 4.61967154 50.218936 4.61967154 51.576831 7.2042492 51.576831 10.094277L51.576831 11.4335581zM48.6269212 9.62435374C48.6269212 8.14409563 48.1820935 6.87530295 46.5900787 6.87530295 45.0682998 6.87530295 44.4361763 8.26157643 44.4361763 9.62435374L48.6269212 9.62435374zM4.48012417 32.1949817L3.57228186 36.0127027.344398085 36.0127027 4.95926316 19.0590075 10.4567527 19.0590075 14.9203107 36.0127027 11.213288 36.0127027 10.3306635 32.1949817 4.48012417 32.1949817zM7.9854042 21.9474148L6.95147268 21.9474148 5.08535237 29.5326236 9.72543529 29.5326236 7.9854042 21.9474148zM24.6291799 35.4350212L24.1248231 33.023829C23.6204662 33.2749948 22.9143666 33.4759275 22.2334849 33.4759275 21.3508604 33.4759275 20.9221571 32.9233626 20.9221571 32.0693987L20.9221571 26.0414182 24.2256944 26.0414182 24.2256944 23.7055758 20.9221571 23.7055758 20.9221571 20.5157694 17.6690555 21.570666 17.6690555 23.7055758 15.828153 23.7055758 15.828153 26.0414182 17.6690555 26.0414182 17.6690555 32.1447485C17.6690555 35.2340885 19.1064725 36.2638685 21.3004248 36.2638685 22.6117525 36.2638685 23.8978625 35.8620031 24.6291799 35.4350212L24.6291799 35.4350212zM31.0345117 36.0127027L31.0345117 23.7055758 26.3187753 23.7055758 26.3187753 25.7651358 27.7561923 26.0665348 27.7561923 36.0127027 31.0345117 36.0127027zM27.6553209 21.6711324L30.9840761 21.6711324 30.9840761 18.6822587 27.6553209 18.6822587 27.6553209 21.6711324zM44.551275 30.7382197L36.8598332 30.7382197C36.8598332 32.6973134 37.9694183 33.7773266 40.0372813 33.7773266 41.2981734 33.7773266 42.5842834 33.3001114 43.6686506 32.7475465L44.2990966 35.0582724C43.2651651 35.6108373 41.5755697 36.2638685 39.6337959 36.2638685 35.8259017 36.2638685 33.5562959 33.9029095 33.5562959 29.8340226 33.5562959 26.0414182 35.3971984 23.4544099 39.3563996 23.4544099 43.0886402 23.4544099 44.551275 26.2172343 44.551275 29.3065743L44.551275 30.7382197zM41.373827 28.8042426C41.373827 27.2218977 40.894688 25.8656021 39.1798747 25.8656021 37.540715 25.8656021 36.8598332 27.3474807 36.8598332 28.8042426L41.373827 28.8042426zM58.0680383 36.0127027L58.0680383 28.4023773C58.0680383 25.2879207 56.8323641 23.4544099 53.7053517 23.4544099 51.8644492 23.4544099 50.5026857 24.2832572 49.7965862 25.1121046L49.2922293 23.7055758 47.0226235 23.7055758 47.0226235 36.0127027 50.3261608 36.0127027 50.3261608 26.719566C50.9061712 26.3428173 51.6374886 25.9660685 52.4948953 25.9660685 54.0079658 25.9660685 54.7140653 26.845149 54.7140653 28.7037763L54.7140653 36.0127027 58.0680383 36.0127027zM65.6838266 23.4544099C67.0203722 23.4544099 68.0795216 23.9065085 68.7604033 24.660006 68.5586606 23.9567416 68.4577892 23.328827 68.4577892 22.3995133L68.4577892 18.6822587 71.7361087 18.6822587 71.7361087 36.0127027 69.0630174 36.0127027 68.6847498 34.656407C68.180393 35.4099046 66.9951544 36.2638685 65.4064303 36.2638685 62.6072499 36.2638685 60.3628619 34.2545417 60.3628619 29.8591392 60.3628619 25.7902524 62.6829034 23.4544099 65.6838266 23.4544099L65.6838266 23.4544099zM68.4577892 32.8228963L68.4577892 26.5186334C67.9534324 26.2172343 67.1716793 25.9158353 66.2134013 25.9158353 64.6498951 25.9158353 63.6663992 26.9707319 63.6663992 29.8340226 63.6663992 32.7726631 64.5994594 33.8777929 66.1629656 33.8777929 66.9951544 33.8777929 67.8273432 33.4759275 68.4577892 32.8228963L68.4577892 32.8228963zM85.2276541 30.7382197L77.5362123 30.7382197C77.5362123 32.6973134 78.6457974 33.7773266 80.7136604 33.7773266 81.9745525 33.7773266 83.2606624 33.3001114 84.3450296 32.7475465L84.9754757 35.0582724C83.9415442 35.6108373 82.2519488 36.2638685 80.3101749 36.2638685 76.5022808 36.2638685 74.232675 33.9029095 74.232675 29.8340226 74.232675 26.0414182 76.0735775 23.4544099 80.0327787 23.4544099 83.7650193 23.4544099 85.2276541 26.2172343 85.2276541 29.3065743L85.2276541 30.7382197zM82.050206 28.8042426C82.050206 27.2218977 81.571067 25.8656021 79.8562538 25.8656021 78.2170941 25.8656021 77.5362123 27.3474807 77.5362123 28.8042426L82.050206 28.8042426z"/>
    </g>
    <path d="M36.3828433,40.9215509 C32.9065283,40.9215509 30.0786452,43.7518197 30.0786452,47.2310673 L30.0786452,51.2889878 L23.7726458,51.2889878 L19.5686463,51.2889878 L19.5686463,47.4618154 C20.2098733,45.7528378 21.8453624,44.5269888 23.774447,44.5269888 L27.0454253,44.5269888 C27.8253446,44.5269888 28.596258,44.7288934 29.2699066,45.1128725 L30.1596992,43.5463097 C29.2140694,43.0090995 28.1387534,42.7242699 27.0454253,42.7242699 L23.7726458,42.7242699 L23.7726458,40.0508376 C23.240172,39.8433782 22.7478539,39.558442 22.3091957,39.210173 C22.2859,42.9185006 22.3288106,42.9721047 22.3091957,42.9185006 L20.5160772,43.6562756 C18.7022693,44.763145 17.4702489,46.7497414 17.4702489,49.0337863 L17.4702489,51.2889878 L2.16005345,51.2889878 L2.16005345,5.05419735 C2.16005345,4.06089919 4.08413222,2.1630925 5.07659313,2.1630925 L22.3494882,2.19013329 L22.3494882,5.05419735 L23.7726458,4.65445015 L23.7726458,2.1630925 L30.1326812,2.1630925 L29.6283453,3.93877071 L16.4939988,7.60550115 L26.5536978,16.1467837 L26.5536978,28.6720753 L39.1765037,20.7238873 L48.4562833,23.5956186 L48.4562833,42.0644747 C47.4350032,41.3487953 46.1975792,40.9215509 44.8574868,40.9215509 L36.3828433,40.9215509 Z M48.4562833,51.2889878 L31.8798446,51.2889878 L31.8798446,47.2310673 C31.8798446,44.7469206 33.9007904,42.7242699 36.3828433,42.7242699 L44.8574868,42.7242699 C46.3326692,42.7242699 47.6349364,43.4489629 48.4562833,44.5504242 L48.4562833,51.2889878 Z M41.8494837,2.54887437 L41.5612918,2.1630925 L45.8253105,2.1630925 C47.1508595,2.1630925 47.41519,2.32173178 47.7177915,2.54887437 L41.8494837,2.54887437 Z M47.5809004,12.4998832 L48.4562833,11.4344763 L48.4562833,14.7965472 L47.5809004,12.4998832 Z M20.2476985,8.42934373 L31.0855157,5.40257854 L32.0041274,2.1630925 L39.3133948,2.1630925 L40.9452816,4.35159336 L48.4562833,4.35159336 L48.4562833,8.59519387 L45.518527,12.1699856 L48.4562833,19.7251809 L48.4562833,21.7081718 L38.917131,18.7589236 L28.3548973,25.4073512 L28.3548973,15.3121248 L20.2476985,8.42934373 Z M23.3246241,0.581903725 L22.2129032,0.581903725 L5.49529456,0.581903725 C2.7302021,0.581903725 0.480011987,2.83399215 0.480011987,5.60141729 L0.480011987,52.8701766 L22.2129032,52.8701766 L23.3246241,52.8701766 L50.1363248,52.8701766 L50.1363248,5.60141729 C50.1363248,2.83399215 47.8861347,0.581903725 45.1210422,0.581903725 L23.3246241,0.581903725 Z"/>
    <path d="M22.3470941,13.6673223 C22.33057,24.8433348 22.3205485,30.4313411 22.3170298,30.4313411 C22.7345348,30.1044633 23.1996341,29.8360063 23.7012471,29.637837 L23.7012471,14.9470075 L22.3470941,13.6673223 Z"/>
  </g>
</svg>
