<?xml version="1.0" encoding="UTF-8"?>
<svg width="46px" height="46px" viewBox="0 0 46 46" version="1.1" xmlns="http://www.w3.org/2000/svg" xmlns:xlink="http://www.w3.org/1999/xlink">
    <!-- Generator: Sketch 46.2 (44496) - http://www.bohemiancoding.com/sketch -->
    <title>Logo</title>
    <desc>Created with Sketch.</desc>
    <defs></defs>
    <g id="Symbols" stroke="none" stroke-width="1" fill="none" fill-rule="evenodd">
        <g id="ClaveUnica-Widget" transform="translate(-33.000000, -28.000000)" fill="#FFFFFF">
            <g id="Logo">
                <g transform="translate(33.000000, 28.000000)">
                    <path d="M30.6870446,8.16946695 C36.0313445,10.9975286 39.6778844,16.607777 39.6778844,23.0761585 C39.6778844,32.388793 32.125687,39.9392859 22.8109503,39.9392859 C13.4962136,39.9392859 5.94401615,32.388793 5.94401615,23.0761585 C5.94401615,16.5619019 9.64723804,10.9192712 15.0536181,8.11279777 L15.0536181,1.87379145 C6.39747189,5.03916966 0.20834084,13.3236633 0.20834084,23.0761585 C0.20834084,35.5568697 10.3274217,45.6736667 22.8109503,45.6736667 C35.2944789,45.6736667 45.4135597,35.5568697 45.4135597,23.0761585 C45.4135597,13.3695384 39.2811106,5.11742709 30.6870446,1.91696797 L30.6870446,8.16946695 Z" id="Fill-22"></path>
                    <path d="M22.9280622,18.7195212 C25.2245036,18.7195212 27.0885156,20.5912033 27.0885156,22.9031222 C27.0885156,25.2150412 25.2245036,27.0867232 22.9280622,27.0867232 C20.6316209,27.0867232 18.7676088,25.2150412 18.7676088,22.9031222 C18.7676088,20.5912033 20.6316209,18.7195212 22.9280622,18.7195212 M22.9280622,32.0886787 C27.9721755,32.0886787 32.0627956,27.9752995 32.0627956,22.9031222 C32.0627956,18.9436909 29.5541684,15.5973503 26.0598173,14.3090497 L26.0598173,0 L19.5948649,0 L19.5948649,14.371169 C16.2025779,15.7134864 13.7933289,19.0166136 13.7933289,22.9031222 C13.7933289,27.9752995 17.883949,32.0886787 22.9280622,32.0886787" id="Fill-23"></path>
                </g>
            </g>
        </g>
    </g>
</svg>