<?xml version="1.0" encoding="UTF-8"?>
<svg width="149px" height="53px" viewBox="0 0 149 53" version="1.1" xmlns="http://www.w3.org/2000/svg" xmlns:xlink="http://www.w3.org/1999/xlink">
    <!-- Generator: Sketch 46.2 (44496) - http://www.bohemiancoding.com/sketch -->
    <title>ChileAtiendeLogo</title>
    <desc>Created with Sketch.</desc>
    <defs>
        <polygon id="path-1" points="91.8991825 7.54125185 91.8991825 0.0793057078 0.00134367095 0.0793057078 0.00134367095 7.54125185 91.8991825 7.54125185"></polygon>
    </defs>
    <g id="Page-1" stroke="none" stroke-width="1" fill="none" fill-rule="evenodd">
        <g id="Home" transform="translate(-136.000000, -49.000000)">
            <g id="ChileAtiende/blanco" transform="translate(136.000000, 49.000000)">
                <g id="ChileAtiende">
                    <path d="M25.7801168,31.7102985 C24.1589182,31.7102985 22.8394625,33.0140701 22.8394625,34.6147224 C22.8394625,36.2171631 24.1589182,37.5209346 25.7801168,37.5209346 C27.4013155,37.5209346 28.7207712,36.2171631 28.7207712,34.6147224 C28.7207712,33.0140701 27.4013155,31.7102985 25.7801168,31.7102985 M25.7801168,39.309373 C23.1751292,39.309373 21.0540015,37.2025926 21.0540015,34.6147224 C21.0540015,32.0268521 23.1751292,29.9218602 25.7801168,29.9218602 C28.38689,29.9218602 30.5062322,32.0268521 30.5062322,34.6147224 C30.5062322,37.2025926 28.38689,39.309373 25.7801168,39.309373" id="Fill-1" fill="#FEFEFE"></path>
                    <path d="M41.0927306,28.1567195 C38.9583366,28.1567195 37.2195337,29.8759363 37.2195337,31.986212 C37.2195337,34.0982897 38.9583366,35.8175066 41.0927306,35.8175066 C43.2289228,35.8175066 44.9659275,34.0982897 44.9659275,31.986212 C44.9659275,29.8759363 43.2289228,28.1567195 41.0927306,28.1567195 M41.0927306,37.6196207 C37.9657625,37.6196207 35.4213922,35.0930567 35.4213922,31.986212 C35.4213922,28.8811693 37.9657625,26.3546054 41.0927306,26.3546054 C44.2196988,26.3546054 46.7640691,28.8811693 46.7640691,31.986212 C46.7640691,35.0930567 44.2196988,37.6196207 41.0927306,37.6196207" id="Fill-3" fill="#FEFEFE"></path>
                    <path d="M69.618125,18.6665006 L68.6348475,16.1930251 C67.5579245,16.986404 66.0127742,17.6397749 64.4676238,17.6397749 C61.8923732,17.6397749 60.5813365,15.773001 60.5813365,12.1327917 C60.5813365,8.67925989 61.8923732,6.8358206 64.5144465,6.8358206 C66.1532424,6.8358206 67.5813359,7.30251409 68.4007338,7.9325503 L69.5713023,5.4590748 C68.283677,4.59569184 66.3405333,4.12899834 64.1866873,4.12899834 C59.7151158,4.12899834 57.3505675,7.25584474 57.3505675,12.1561264 C57.3505675,17.4064282 59.7385272,20.3465972 64.1866873,20.3465972 C66.2702992,20.3465972 68.0495633,19.7398956 69.618125,18.6665006 L69.618125,18.6665006 Z M74.7452149,20.1132504 L74.7452149,11.4794208 C75.260265,11.106066 75.9860175,10.7793806 76.782004,10.7793806 C78.1632748,10.7793806 78.8187931,11.6660982 78.8187931,13.2995255 L78.8187931,20.1132504 L81.9325053,20.1132504 L81.9325053,13.042844 C81.9325053,10.1493444 81.0194619,8.44591314 77.7418702,8.44591314 C76.1264857,8.44591314 75.0729741,9.2159574 74.4408671,10.0093363 C74.5813353,9.65931622 74.7452149,9.02928001 74.7452149,8.23590107 L74.7452149,4.01232497 L71.6783255,4.01232497 L71.6783255,20.1132504 L74.7452149,20.1132504 Z M88.3940432,20.1132504 L88.3940432,8.67925989 L84.0161171,8.67925989 L84.0161171,10.5927032 L85.3505652,10.8727193 L85.3505652,20.1132504 L88.3940432,20.1132504 Z M85.2569197,6.78915125 L88.3472204,6.78915125 L88.3472204,4.01232497 L85.2569197,4.01232497 L85.2569197,6.78915125 Z M94.3873537,20.3465972 C95.1833403,20.3465972 96.0729723,20.1599198 96.0729723,20.1599198 L96.0729723,18.0131297 C94.8087584,18.0131297 94.2234741,17.8731217 94.2234741,16.9164 L94.2234741,4.01232497 L91.2034075,4.01232497 L91.2034075,17.0797427 C91.2034075,19.1098594 92.0462168,20.3465972 94.3873537,20.3465972 L94.3873537,20.3465972 Z M107.82548,15.2129688 L100.685012,15.2129688 C100.685012,17.0330734 101.715112,18.0364644 103.634845,18.0364644 C104.805413,18.0364644 105.999393,17.5931056 107.006082,17.0797427 L107.591366,19.2265328 C106.6315,19.7398956 105.062938,20.3465972 103.260263,20.3465972 C99.7251459,20.3465972 97.6181227,18.1531378 97.6181227,14.3729205 C97.6181227,10.8493846 99.3271526,8.44591314 103.002738,8.44591314 C106.46762,8.44591314 107.82548,11.0127273 107.82548,13.8828923 L107.82548,15.2129688 Z M104.875647,13.4161988 C104.875647,11.9461143 104.430831,10.6860419 102.838858,10.6860419 C101.317119,10.6860419 100.685012,12.0627877 100.685012,13.4161988 L104.875647,13.4161988 Z" id="Fill-5" fill="#FEFEFE"></path>
                    <path d="M60.7300068,35.8317018 L59.8221883,39.6231841 L56.5943891,39.6231841 L61.2091332,22.7860094 L66.7064787,22.7860094 L71.1699198,39.6231841 L67.4629942,39.6231841 L66.5803928,35.8317018 L60.7300068,35.8317018 Z M64.235195,25.6545651 L63.2012905,25.6545651 L61.3352191,33.1876418 L65.9751805,33.1876418 L64.235195,25.6545651 Z M80.8785346,39.049473 L80.374191,36.6548526 C79.8698473,36.9042922 79.1637663,37.1038439 78.4829024,37.1038439 C77.600301,37.1038439 77.171609,36.5550767 77.171609,35.706982 L77.171609,29.720431 L80.4750597,29.720431 L80.4750597,27.4006425 L77.171609,27.4006425 L77.171609,24.2327593 L73.9185926,25.2804057 L73.9185926,27.4006425 L72.0777383,27.4006425 L72.0777383,29.720431 L73.9185926,29.720431 L73.9185926,35.7818139 C73.9185926,38.8499213 75.3559719,39.8726237 77.5498667,39.8726237 C78.8611601,39.8726237 80.1472363,39.4735203 80.8785346,39.049473 L80.8785346,39.049473 Z M87.2836986,39.6231841 L87.2836986,27.4006425 L82.5680857,27.4006425 L82.5680857,29.4460474 L84.0054651,29.745375 L84.0054651,39.6231841 L87.2836986,39.6231841 Z M83.9045963,25.3801815 L87.2332643,25.3801815 L87.2332643,22.41185 L83.9045963,22.41185 L83.9045963,25.3801815 Z M100.800108,34.384952 L93.1088675,34.384952 C93.1088675,36.3305811 94.2184235,37.4031714 96.2862323,37.4031714 C97.5470914,37.4031714 98.8331676,36.9292362 99.9175064,36.380469 L100.547936,38.6753135 C99.5140315,39.2240807 97.8244804,39.8726237 95.8827574,39.8726237 C92.0749631,39.8726237 89.8054168,37.5278913 89.8054168,33.4869693 C89.8054168,29.720431 91.646271,27.1512029 95.6053684,27.1512029 C99.3375113,27.1512029 100.800108,29.8950387 100.800108,32.9631461 L100.800108,34.384952 Z M97.6227429,32.4642669 C97.6227429,30.8927972 97.1436165,29.5458233 95.4288482,29.5458233 C93.7897314,29.5458233 93.1088675,31.0175171 93.1088675,32.4642669 L97.6227429,32.4642669 Z M114.316517,39.6231841 L114.316517,32.0651635 C114.316517,28.9721121 113.080875,27.1512029 109.953945,27.1512029 C108.11309,27.1512029 106.751363,27.9743536 106.045281,28.7975044 L105.540938,27.4006425 L103.271392,27.4006425 L103.271392,39.6231841 L106.574842,39.6231841 L106.574842,30.393918 C107.154837,30.0197586 107.886136,29.6455991 108.74352,29.6455991 C110.256551,29.6455991 110.962632,30.5186378 110.962632,32.364491 L110.962632,39.6231841 L114.316517,39.6231841 Z M121.932106,27.1512029 C123.268616,27.1512029 124.327738,27.6001942 125.008602,28.3485131 C124.806864,27.6500821 124.705996,27.0264831 124.705996,26.1035564 L124.705996,22.41185 L127.984229,22.41185 L127.984229,39.6231841 L125.311208,39.6231841 L124.93295,38.2762101 C124.428607,39.024529 123.243399,39.8726237 121.654717,39.8726237 C118.85561,39.8726237 116.61128,37.8771067 116.61128,33.5119133 C116.61128,29.4709914 118.931261,27.1512029 121.932106,27.1512029 L121.932106,27.1512029 Z M124.705996,36.4553009 L124.705996,30.1943663 C124.201652,29.8950387 123.419919,29.5957112 122.461666,29.5957112 C120.898201,29.5957112 119.914731,30.6433576 119.914731,33.4869693 C119.914731,36.4054129 120.847767,37.5029473 122.411232,37.5029473 C123.243399,37.5029473 124.075566,37.1038439 124.705996,36.4553009 L124.705996,36.4553009 Z M141.475421,34.384952 L133.784181,34.384952 C133.784181,36.3305811 134.893737,37.4031714 136.961546,37.4031714 C138.222405,37.4031714 139.508481,36.9292362 140.59282,36.380469 L141.223249,38.6753135 C140.189345,39.2240807 138.499794,39.8726237 136.558071,39.8726237 C132.750276,39.8726237 130.48073,37.5278913 130.48073,33.4869693 C130.48073,29.720431 132.321584,27.1512029 136.280682,27.1512029 C140.012825,27.1512029 141.475421,29.8950387 141.475421,32.9631461 L141.475421,34.384952 Z M138.298056,32.4642669 C138.298056,30.8927972 137.81893,29.5458233 136.104162,29.5458233 C134.465045,29.5458233 133.784181,31.0175171 133.784181,32.4642669 L138.298056,32.4642669 Z" id="Fill-7" fill="#FEFEFE"></path>
                    <g id="Group-11" transform="translate(56.972478, 43.064378)">
                        <mask id="mask-2" fill="white">
                            <use xlink:href="#path-1"></use>
                        </mask>
                        <g id="Clip-10"></g>
                        <path d="M4.30737282,2.25300306 C4.30737282,3.8210932 3.16054094,4.49158691 1.76486817,4.49158691 L0.531482939,4.49158691 L0.531482939,7.43310771 L0.00134367095,7.43310771 L0.00134367095,0.133377781 L1.76486817,0.133377781 C3.16054094,0.133377781 4.30737282,0.793057078 4.30737282,2.25300306 L4.30737282,2.25300306 Z M3.73395688,2.25300306 C3.73395688,1.07423186 2.86842338,0.587583199 1.69995316,0.587583199 L0.531482939,0.587583199 L0.531482939,4.02656708 L1.69995316,4.02656708 C2.95497673,4.02656708 3.73395688,3.51828958 3.73395688,2.25300306 L3.73395688,2.25300306 Z M9.02453039,4.93497791 L5.31355552,4.93497791 C5.31355552,6.4706248 6.08171649,7.11948968 7.1528142,7.11948968 C7.91015601,7.11948968 8.5376678,6.74098517 8.85142369,6.52469687 L9.02453039,6.9140158 C8.5701253,7.19519058 7.91015601,7.54125185 7.12035669,7.54125185 C5.74632226,7.54125185 4.79423542,6.60039778 4.79423542,4.74031845 C4.79423542,3.03164092 5.60567307,2.02590035 6.9797075,2.02590035 C8.41865694,2.02590035 9.02453039,3.22630039 9.02453039,4.5564734 L9.02453039,4.93497791 Z M8.50521029,4.51321574 C8.50521029,3.47503193 8.13735855,2.43684811 6.94724999,2.43684811 C5.78959894,2.43684811 5.31355552,3.47503193 5.31355552,4.51321574 L8.50521029,4.51321574 Z M12.973527,2.15567333 C12.973527,2.15567333 12.7138669,2.0583436 12.270281,2.0583436 C11.5886734,2.0583436 11.1018108,2.5017346 10.8637891,2.78290938 L10.7231399,2.1340445 L10.3769265,2.1340445 L10.3769265,7.43310771 L10.9070657,7.43310771 L10.9070657,3.19385714 C11.2100025,2.8694247 11.6535884,2.51254902 12.2161852,2.51254902 C12.5299411,2.51254902 12.7787819,2.55580668 12.908612,2.60987875 L12.973527,2.15567333 Z M15.2671907,2.45847694 C15.862245,2.45847694 16.2950118,2.56662109 16.7277785,2.81535263 L16.9008852,2.41521928 C16.435661,2.1340445 15.8297875,2.02590035 15.2671907,2.02590035 C14.1528164,2.02590035 13.6551346,2.67476524 13.6551346,3.36688778 C13.6551346,5.16208062 16.4032035,4.59973105 16.4032035,6.04886263 C16.4032035,6.70854192 15.9704367,7.1303041 15.2130949,7.1303041 C14.6721365,7.1303041 14.0987205,6.8383149 13.806603,6.6220266 L13.6010388,7.03297436 C13.9688905,7.2817059 14.5423064,7.54125185 15.2022757,7.54125185 C16.2950118,7.54125185 16.9225236,6.82750048 16.9225236,6.0272338 C16.9225236,4.21041213 14.1419972,4.65380313 14.1419972,3.37770219 C14.1419972,2.80453821 14.5098489,2.45847694 15.2671907,2.45847694 L15.2671907,2.45847694 Z M22.3537463,4.76194728 C22.3537463,6.5463257 21.5098511,7.54125185 20.1790933,7.54125185 C18.8158781,7.54125185 18.0260788,6.56795453 18.0260788,4.76194728 C18.0260788,3.21548597 18.6968672,2.02590035 20.1790933,2.02590035 C21.5855853,2.02590035 22.3537463,3.18304273 22.3537463,4.76194728 L22.3537463,4.76194728 Z M21.8127878,4.76194728 C21.8127878,3.33444453 21.3151061,2.43684811 20.1790933,2.43684811 C19.0214423,2.43684811 18.556218,3.37770219 18.556218,4.76194728 C18.556218,6.1029347 18.9457081,7.1303041 20.1790933,7.1303041 C21.3692019,7.1303041 21.8127878,6.2543365 21.8127878,4.76194728 L21.8127878,4.76194728 Z M27.5902239,7.43310771 L27.5902239,4.0481959 C27.5902239,2.75046614 27.0276271,2.02590035 25.8375186,2.02590035 C25.0369001,2.02590035 24.4743033,2.48010577 24.1821858,2.77209497 L24.0415366,2.1340445 L23.6953232,2.1340445 L23.6953232,7.43310771 L24.2254624,7.43310771 L24.2254624,3.19385714 C24.582495,2.83698146 25.0585384,2.45847694 25.7076886,2.45847694 C26.7246904,2.45847694 27.0492655,3.085713 27.0492655,4.19959771 L27.0492655,7.43310771 L27.5902239,7.43310771 Z M32.6211374,7.43310771 L32.2641048,7.43310771 L32.145094,6.71935634 C31.8096997,7.1303041 31.2146454,7.54125185 30.4681228,7.54125185 C29.3753868,7.54125185 28.7911517,6.79505724 28.7911517,5.95153289 C28.7911517,5.06475089 29.4403018,4.46995808 30.608772,4.46995808 L32.1126364,4.46995808 L32.1126364,3.972495 C32.1126364,2.92349678 31.7123272,2.45847694 30.7926979,2.45847694 C30.1002711,2.45847694 29.5268551,2.65313641 29.1698226,2.81535263 L29.0183542,2.41521928 C29.3862059,2.25300306 29.970441,2.02590035 30.868432,2.02590035 C31.9936256,2.02590035 32.6211374,2.64232199 32.6211374,3.87516527 L32.6211374,7.43310771 Z M32.1126364,6.31922299 L32.1126364,4.88090584 L30.673687,4.88090584 C29.6242276,4.88090584 29.2996526,5.33511125 29.2996526,5.92990406 C29.2996526,6.63284102 29.6891427,7.1303041 30.5763145,7.1303041 C31.1930071,7.1303041 31.766423,6.75179958 32.1126364,6.31922299 L32.1126364,6.31922299 Z M35.5639513,2.45847694 C36.1590056,2.45847694 36.5917723,2.56662109 37.0245391,2.81535263 L37.1976458,2.41521928 C36.7324215,2.1340445 36.126548,2.02590035 35.5639513,2.02590035 C34.4495769,2.02590035 33.9518951,2.67476524 33.9518951,3.36688778 C33.9518951,5.16208062 36.699964,4.59973105 36.699964,6.04886263 C36.699964,6.70854192 36.2671972,7.1303041 35.5098554,7.1303041 C34.968897,7.1303041 34.3954811,6.8383149 34.1033635,6.6220266 L33.8977993,7.03297436 C34.265651,7.2817059 34.839067,7.54125185 35.4990363,7.54125185 C36.5917723,7.54125185 37.2192841,6.82750048 37.2192841,6.0272338 C37.2192841,4.21041213 34.4387577,4.65380313 34.4387577,3.37770219 C34.4387577,2.80453821 34.8066095,2.45847694 35.5639513,2.45847694 L35.5639513,2.45847694 Z M44.5005846,7.43310771 L44.1435521,7.43310771 L44.0245412,6.71935634 C43.689147,7.1303041 43.0940927,7.54125185 42.3475701,7.54125185 C41.254834,7.54125185 40.6705989,6.79505724 40.6705989,5.95153289 C40.6705989,5.06475089 41.319749,4.46995808 42.4882193,4.46995808 L43.9920837,4.46995808 L43.9920837,3.972495 C43.9920837,2.92349678 43.5917745,2.45847694 42.6721451,2.45847694 C41.9797183,2.45847694 41.4063024,2.65313641 41.0492698,2.81535263 L40.8978015,2.41521928 C41.2656532,2.25300306 41.8498883,2.02590035 42.7478793,2.02590035 C43.8730729,2.02590035 44.5005846,2.64232199 44.5005846,3.87516527 L44.5005846,7.43310771 Z M43.9920837,6.31922299 L43.9920837,4.88090584 L42.5531343,4.88090584 C41.5036749,4.88090584 41.1790998,5.33511125 41.1790998,5.92990406 C41.1790998,6.63284102 41.5685899,7.1303041 42.4557618,7.1303041 C43.0724544,7.1303041 43.6458703,6.75179958 43.9920837,6.31922299 L43.9920837,6.31922299 Z M51.1327351,7.24926266 L51.002905,6.87075814 C50.8514367,6.95727346 50.4619466,7.10867527 50.1373715,7.10867527 C49.5747748,7.10867527 49.3583914,6.82750048 49.3583914,6.15700677 L49.3583914,2.52336343 L50.9812667,2.52336343 L50.9812667,2.1340445 L49.3583914,2.1340445 L49.3583914,0.976902128 L48.8282521,1.14993276 L48.8282521,2.1340445 L48.0168145,2.1340445 L48.0168145,2.52336343 L48.8282521,2.52336343 L48.8282521,6.15700677 C48.8282521,7.26007707 49.4665831,7.54125185 50.0724565,7.54125185 C50.4944041,7.54125185 50.9812667,7.36822122 51.1327351,7.24926266 L51.1327351,7.24926266 Z M56.1095527,7.43310771 L56.1095527,2.1340445 L55.5685942,2.1340445 L55.5685942,6.4706248 C55.1899233,6.79505724 54.6597841,7.08704644 54.075549,7.08704644 C53.1126429,7.08704644 52.7447912,6.55714012 52.7447912,5.31348243 L52.7447912,2.1340445 L52.2146519,2.1340445 L52.2146519,5.41081216 C52.2146519,6.84912931 52.8962596,7.54125185 53.9998148,7.54125185 C54.7679758,7.54125185 55.3738492,7.11948968 55.6335093,6.84912931 L55.7092434,7.43310771 L56.1095527,7.43310771 Z M61.3784879,2.45847694 C61.9735421,2.45847694 62.4063089,2.56662109 62.8390756,2.81535263 L63.0121823,2.41521928 C62.5469581,2.1340445 61.9410846,2.02590035 61.3784879,2.02590035 C60.2641135,2.02590035 59.7664317,2.67476524 59.7664317,3.36688778 C59.7664317,5.16208062 62.5145006,4.59973105 62.5145006,6.04886263 C62.5145006,6.70854192 62.0817338,7.1303041 61.324392,7.1303041 C60.7834336,7.1303041 60.2100176,6.8383149 59.9179001,6.6220266 L59.7123359,7.03297436 C60.0801876,7.2817059 60.6536035,7.54125185 61.3135728,7.54125185 C62.4063089,7.54125185 63.0338207,6.82750048 63.0338207,6.0272338 C63.0338207,4.21041213 60.2532943,4.65380313 60.2532943,3.37770219 C60.2532943,2.80453821 60.621146,2.45847694 61.3784879,2.45847694 L61.3784879,2.45847694 Z M68.37849,4.93497791 L64.6675151,4.93497791 C64.6675151,6.4706248 65.4356761,7.11948968 66.5067738,7.11948968 C67.2641156,7.11948968 67.8916274,6.74098517 68.2053833,6.52469687 L68.37849,6.9140158 C67.9240849,7.19519058 67.2641156,7.54125185 66.4743163,7.54125185 C65.1002819,7.54125185 64.148195,6.60039778 64.148195,4.74031845 C64.148195,3.03164092 64.9596327,2.02590035 66.3336671,2.02590035 C67.7726166,2.02590035 68.37849,3.22630039 68.37849,4.5564734 L68.37849,4.93497791 Z M67.8591699,4.51321574 C67.8591699,3.47503193 67.4913182,2.43684811 66.3012096,2.43684811 C65.1435586,2.43684811 64.6675151,3.47503193 64.6675151,4.51321574 L67.8591699,4.51321574 Z M72.3274866,2.15567333 C72.3274866,2.15567333 72.0678266,2.0583436 71.6242406,2.0583436 C70.942633,2.0583436 70.4557704,2.5017346 70.2177487,2.78290938 L70.0770995,2.1340445 L69.7308861,2.1340445 L69.7308861,7.43310771 L70.2610254,7.43310771 L70.2610254,3.19385714 C70.5639621,2.8694247 71.007548,2.51254902 71.5701448,2.51254902 C71.8839007,2.51254902 72.1327416,2.55580668 72.2625716,2.60987875 L72.3274866,2.15567333 Z M77.033825,2.1340445 L76.4712282,2.1340445 L74.8916296,7.09786085 L74.8699913,7.09786085 L73.2795735,2.1340445 L72.7061575,2.1340445 L74.4588628,7.43310771 L75.2594813,7.43310771 L77.033825,2.1340445 Z M78.8730837,7.43310771 L78.8730837,2.1340445 L77.7911668,2.1340445 L77.7911668,2.49092019 L78.3645828,2.59906433 L78.3645828,7.43310771 L78.8730837,7.43310771 Z M78.2780294,0.738985005 L78.8730837,0.738985005 L78.8730837,0.0793057078 L78.2780294,0.0793057078 L78.2780294,0.738985005 Z M84.023008,6.64365543 C83.6443371,6.89238697 83.125017,7.10867527 82.4325902,7.10867527 C81.3723117,7.10867527 80.7231615,6.40573831 80.7231615,4.7835761 C80.7231615,3.36688778 81.3506733,2.46929136 82.4109519,2.46929136 C82.995187,2.46929136 83.4928687,2.5774355 83.9256355,2.83698146 L84.0987422,2.43684811 C83.6335179,2.14485892 82.9627295,2.02590035 82.4109519,2.02590035 C81.199205,2.02590035 80.2146606,2.95594002 80.2146606,4.7835761 C80.2146606,6.80587165 81.199205,7.54125185 82.4325902,7.54125185 C83.189932,7.54125185 83.8066246,7.27089149 84.1420189,7.06541761 L84.023008,6.64365543 Z M86.2301184,7.43310771 L86.2301184,2.1340445 L85.1482015,2.1340445 L85.1482015,2.49092019 L85.7216175,2.59906433 L85.7216175,7.43310771 L86.2301184,7.43310771 Z M85.6350641,0.738985005 L86.2301184,0.738985005 L86.2301184,0.0793057078 L85.6350641,0.0793057078 L85.6350641,0.738985005 Z M91.8993628,4.76194728 C91.8993628,6.5463257 91.0554677,7.54125185 89.7247099,7.54125185 C88.3614947,7.54125185 87.5716953,6.56795453 87.5716953,4.76194728 C87.5716953,3.21548597 88.2424838,2.02590035 89.7247099,2.02590035 C91.1312018,2.02590035 91.8993628,3.18304273 91.8993628,4.76194728 L91.8993628,4.76194728 Z M91.3584044,4.76194728 C91.3584044,3.33444453 90.8607226,2.43684811 89.7247099,2.43684811 C88.5670589,2.43684811 88.1018346,3.37770219 88.1018346,4.76194728 C88.1018346,6.1029347 88.4913247,7.1303041 89.7247099,7.1303041 C90.9148185,7.1303041 91.3584044,6.2543365 91.3584044,4.76194728 L91.3584044,4.76194728 Z" id="Fill-9" fill="#FEFEFE" mask="url(#mask-2)"></path>
                    </g>
                    <path d="M36.3818901,40.6403025 C32.9056662,40.6403025 30.0778571,43.4511192 30.0778571,46.9064545 L30.0778571,50.9364854 L23.772023,50.9364854 L19.5681336,50.9364854 L19.5681336,47.1356166 C20.2093438,45.4383846 21.8447901,44.2209607 23.7738241,44.2209607 L27.0447167,44.2209607 C27.8246156,44.2209607 28.5955088,44.4214776 29.2691397,44.8028177 L30.158909,43.2470217 C29.213304,42.7135036 28.1380161,42.4306316 27.0447167,42.4306316 L23.772023,42.4306316 L23.772023,39.7755735 C23.2395631,39.56954 22.7472579,39.2865621 22.3086112,38.9406867 C22.2853161,42.6235275 22.3282256,42.6767631 22.3086112,42.6235275 L20.5155397,43.3562318 C18.7017793,44.4554939 17.4697912,46.4284366 17.4697912,48.6967836 L17.4697912,50.9364854 L2.15999686,50.9364854 L2.15999686,5.01946052 C2.15999686,4.03298916 4.08402521,2.14822586 5.07646012,2.14822586 L22.3489026,2.17508079 L22.3489026,5.01946052 L23.772023,4.62246073 L23.772023,2.14822586 L30.1318917,2.14822586 L29.627569,3.91170006 L16.4935667,7.55322954 L26.5530021,16.035809 L26.5530021,28.4750159 L39.1754772,20.5814547 L48.4550138,23.433449 L48.4550138,41.7753711 C47.4337604,41.0646105 46.1963688,40.6403025 44.8563115,40.6403025 L36.3818901,40.6403025 Z M48.4550138,50.9364854 L31.8790094,50.9364854 L31.8790094,46.9064545 C31.8790094,44.4393809 33.8999022,42.4306316 36.3818901,42.4306316 L44.8563115,42.4306316 C46.3314552,42.4306316 47.6336883,43.1503439 48.4550138,44.244235 L48.4550138,50.9364854 Z M41.8483872,2.53135629 L41.5602029,2.14822586 L45.8241099,2.14822586 C47.1496242,2.14822586 47.4139477,2.30577482 47.7165413,2.53135629 L41.8483872,2.53135629 Z M47.5796538,12.4139732 L48.4550138,11.3558886 L48.4550138,14.6948525 L47.5796538,12.4139732 Z M20.247168,8.37140996 L31.0847012,5.36544733 L32.0032889,2.14822586 L39.3123648,2.14822586 L40.9442088,4.32168544 L48.4550138,4.32168544 L48.4550138,8.53612024 L45.5173344,12.0863429 L48.4550138,19.5896124 L48.4550138,21.5589744 L38.9161113,18.629996 L28.3541544,25.2327298 L28.3541544,15.2068866 L20.247168,8.37140996 Z M23.324013,0.577904378 L22.2123212,0.577904378 L5.49515059,0.577904378 C2.73013057,0.577904378 0.47999941,2.81451449 0.47999941,5.56291949 L0.47999941,52.5068068 L22.2123212,52.5068068 L23.324013,52.5068068 L50.1350112,52.5068068 L50.1350112,5.56291949 C50.1350112,2.81451449 47.88488,0.577904378 45.11986,0.577904378 L23.324013,0.577904378 Z" id="Fill-12" fill="#FEFEFE"></path>
                    <path d="M22.3465086,13.5733886 C22.3299849,24.6725899 22.3199637,30.2221905 22.316445,30.2221905 C22.7339392,29.8975593 23.1990262,29.6309474 23.7006261,29.43414 L23.7006261,14.8442787 L22.3465086,13.5733886 Z" id="Fill-14" fill="#FEFEFE"></path>
                </g>
            </g>
        </g>
    </g>
</svg>