<svg xmlns="http://www.w3.org/2000/svg" width="149" height="53" viewBox="0 0 149 53">
  <g fill="none" fill-rule="evenodd">
    <g transform="translate(57.758 8.729)">
      <path fill="#00499B" d="M12.5988838,15.2357184 L11.6070648,12.723556 C10.5207868,13.5293439 8.96221401,14.192934 7.40364123,14.192934 C4.80601994,14.192934 3.48359455,12.2969623 3.48359455,8.59981757 C3.48359455,5.09226997 4.80601994,3.21999793 7.45087071,3.21999793 C9.10390244,3.21999793 10.5444015,3.69399085 11.3709174,4.33388129 L12.5516543,1.82171882 C11.2528437,0.944831923 9.29282035,0.470839004 7.12026436,0.470839004 C2.60984921,0.470839004 0.224760564,3.64659156 0.224760564,8.62351721 C0.224760564,13.9559376 2.63346395,16.9420929 7.12026436,16.9420929 C9.22197614,16.9420929 11.0166963,16.3259021 12.5988838,15.2357184 L12.5988838,15.2357184 Z M17.7705117,16.7050965 L17.7705117,7.93622748 C18.2900359,7.55703314 19.0220928,7.2252381 19.824994,7.2252381 C21.2182636,7.2252381 21.8794763,8.12582465 21.8794763,9.78479986 L21.8794763,16.7050965 L25.0202365,16.7050965 L25.0202365,9.52410376 C25.0202365,6.58534766 24.0992617,4.85527351 20.7931983,4.85527351 C19.1637813,4.85527351 18.101118,5.63736182 17.4635201,6.44314978 C17.6052085,6.0876551 17.7705117,5.44776465 17.7705117,4.64197669 L17.7705117,0.352340774 L14.6769809,0.352340774 L14.6769809,16.7050965 L17.7705117,16.7050965 Z M31.5379045,16.7050965 L31.5379045,5.09226997 L27.1219483,5.09226997 L27.1219483,7.03564093 L28.4679884,7.32003669 L28.4679884,16.7050965 L31.5379045,16.7050965 Z M28.3735295,3.17259864 L31.490675,3.17259864 L31.490675,0.352340774 L28.3735295,0.352340774 L28.3735295,3.17259864 Z M37.5832777,16.9420929 C38.3861788,16.9420929 39.2835389,16.7524958 39.2835389,16.7524958 L39.2835389,14.5721283 C38.008343,14.5721283 37.4179745,14.4299305 37.4179745,13.458245 L37.4179745,0.352340774 L34.3716732,0.352340774 L34.3716732,13.6241425 C34.3716732,15.6860117 35.2218038,16.9420929 37.5832777,16.9420929 L37.5832777,16.9420929 Z M51.1381379,11.7281708 L43.9356425,11.7281708 C43.9356425,13.5767432 44.974691,14.595828 46.9110996,14.595828 C48.0918366,14.595828 49.2961883,14.1455347 50.311622,13.6241425 L50.9019905,15.8045099 C49.9337862,16.3259021 48.3515987,16.9420929 46.5332638,16.9420929 C42.9674382,16.9420929 40.8421117,14.7143262 40.8421117,10.8749836 C40.8421117,7.29633704 42.5659876,4.85527351 46.2735017,4.85527351 C49.7684831,4.85527351 51.1381379,7.46223456 51.1381379,10.377291 L51.1381379,11.7281708 Z M48.1626808,9.90329809 C48.1626808,8.4102204 47.7140008,7.13043952 46.1081985,7.13043952 C44.5732405,7.13043952 43.9356425,8.52871863 43.9356425,9.90329809 L48.1626808,9.90329809 Z"/>
      <path fill="#E5002C" d="M4.39630355,32.6693959 L3.48059899,36.5201798 L0.224760564,36.5201798 L4.87959207,19.4196594 L10.4246919,19.4196594 L14.926906,36.5201798 L11.187779,36.5201798 L10.2975107,32.6693959 L4.39630355,32.6693959 Z M7.93194059,22.3330814 L6.88905485,22.3330814 L5.00677325,29.9839809 L9.68704099,29.9839809 L7.93194059,22.3330814 Z M24.7198575,35.9374954 L24.2111327,33.5054214 C23.702408,33.7587624 22.9901933,33.9614352 22.3034149,33.9614352 C21.4131466,33.9614352 20.9807305,33.404085 20.9807305,32.5427254 L20.9807305,26.4625404 L24.3128777,26.4625404 L24.3128777,24.1064687 L20.9807305,24.1064687 L20.9807305,20.8890374 L17.6994559,21.9530698 L17.6994559,24.1064687 L15.8426105,24.1064687 L15.8426105,26.4625404 L17.6994559,26.4625404 L17.6994559,32.6187277 C17.6994559,35.7348225 19.1493214,36.7735208 21.3622741,36.7735208 C22.6849585,36.7735208 23.9822066,36.3681752 24.7198575,35.9374954 L24.7198575,35.9374954 Z M31.1806619,36.5201798 L31.1806619,24.1064687 L26.4240854,24.1064687 L26.4240854,26.1838652 L27.873951,26.4878745 L27.873951,36.5201798 L31.1806619,36.5201798 Z M27.772206,22.0544062 L31.1297894,22.0544062 L31.1297894,19.0396478 L27.772206,19.0396478 L27.772206,22.0544062 Z M44.8144853,31.2000179 L37.0564328,31.2000179 C37.0564328,33.176078 38.1756272,34.2654445 40.2613987,34.2654445 C41.5332106,34.2654445 42.8304587,33.7840965 43.924217,33.2267462 L44.5601229,35.5574838 C43.5172372,36.1148341 41.8130092,36.7735208 39.8544189,36.7735208 C36.013547,36.7735208 33.7242856,34.392115 33.7242856,30.2879901 C33.7242856,26.4625404 35.581131,23.8531276 39.5746203,23.8531276 C43.3391835,23.8531276 44.8144853,26.6398791 44.8144853,29.7559739 L44.8144853,31.2000179 Z M41.6095193,29.2492918 C41.6095193,27.6532433 41.1262308,26.2852016 39.3965666,26.2852016 C37.7432112,26.2852016 37.0564328,27.7799138 37.0564328,29.2492918 L41.6095193,29.2492918 Z M58.4483087,36.5201798 L58.4483087,28.8439462 C58.4483087,25.7025172 57.201933,23.8531276 54.0478396,23.8531276 C52.1909942,23.8531276 50.8174374,24.6891531 50.1052227,25.5251785 L49.596498,24.1064687 L47.3072366,24.1064687 L47.3072366,36.5201798 L50.6393837,36.5201798 L50.6393837,27.1465612 C51.2244172,26.7665496 51.9620681,26.3865381 52.8269002,26.3865381 C54.3530744,26.3865381 55.0652891,27.2732317 55.0652891,29.1479554 L55.0652891,36.5201798 L58.4483087,36.5201798 Z M66.1300525,23.8531276 C67.4781731,23.8531276 68.5464951,24.3091415 69.2332735,25.0691646 C69.0297836,24.3598097 68.9280386,23.7264571 68.9280386,22.7890953 L68.9280386,19.0396478 L72.2347495,19.0396478 L72.2347495,36.5201798 L69.5385083,36.5201798 L69.1569648,35.1521382 C68.64824,35.9121613 67.4527368,36.7735208 65.8502539,36.7735208 C63.0268315,36.7735208 60.7630063,34.7467925 60.7630063,30.3133242 C60.7630063,26.2091993 63.1031402,23.8531276 66.1300525,23.8531276 L66.1300525,23.8531276 Z M68.9280386,33.3027485 L68.9280386,26.9438884 C68.4193139,26.6398791 67.6307905,26.3358699 66.6642135,26.3358699 C65.0871667,26.3358699 64.0951535,27.3999022 64.0951535,30.2879901 C64.0951535,33.2520803 65.0362943,34.3667809 66.613341,34.3667809 C67.4527368,34.3667809 68.2921327,33.9614352 68.9280386,33.3027485 L68.9280386,33.3027485 Z M85.8431367,31.2000179 L78.0850842,31.2000179 C78.0850842,33.176078 79.2042787,34.2654445 81.2900502,34.2654445 C82.561862,34.2654445 83.8591102,33.7840965 84.9528684,33.2267462 L85.5887743,35.5574838 C84.5458886,36.1148341 82.8416607,36.7735208 80.8830704,36.7735208 C77.0421985,36.7735208 74.7529371,34.392115 74.7529371,30.2879901 C74.7529371,26.4625404 76.6097824,23.8531276 80.6032717,23.8531276 C84.3678349,23.8531276 85.8431367,26.6398791 85.8431367,29.7559739 L85.8431367,31.2000179 Z M82.6381708,29.2492918 C82.6381708,27.6532433 82.1548822,26.2852016 80.4252181,26.2852016 C78.7718626,26.2852016 78.0850842,27.7799138 78.0850842,29.2492918 L82.6381708,29.2492918 Z"/>
    </g>
    <path fill="#00499B" d="M4,0.000817481696 L23.2773876,0.000817481696 L23.2773876,52.3749395 L0,52.3749395 L0,4.00081748 L0,4.00081748 C-2.705415e-16,1.79167848 1.790861,0.000817481696 4,0.000817481696 Z"/>
    <path fill="#E5002C" d="M23.2773876,0.000817481696 L46.0360793,0.000817481696 L46.0360793,0.000817481696 C48.2452183,0.000817481696 50.0360793,1.79167848 50.0360793,4.00081748 L50.0360793,52.3749395 L23.2773876,52.3749395 L23.2773876,0.000817481696 Z"/>
    <polygon fill="#FFFFFF" points="18.347 10.184 30.522 6.784 32.319 0 37.273 0 41.598 5.603 50.036 5.603 50.036 10.371 46.736 14.387 50.036 22.874 50.036 25.102 39.32 21.789 27.454 29.257 27.454 17.916"/>
    <path fill="#FEFEFE" d="M20.9954512 37.6468191C20.9954512 35.2208483 22.9702648 33.2475466 25.395562 33.2475466 27.8225214 33.2475466 29.7956727 35.2208483 29.7956727 37.6468191 29.7956727 40.0727898 27.8225214 42.0477681 25.395562 42.0477681 22.9702648 42.0477681 20.9954512 40.0727898 20.9954512 37.6468191zM40.8411933 40.6986462C37.6870618 40.6986462 35.1205891 38.132565 35.1205891 34.9771269 35.1205891 31.8235191 37.6870618 29.2574379 40.8411933 29.2574379 43.9953248 29.2574379 46.5617975 31.8235191 46.5617975 34.9771269 46.5617975 38.132565 43.9953248 40.6986462 40.8411933 40.6986462"/>
    <path fill="#FFFFFF" d="M50.0360793,52.3749395 L31.1141481,52.3749395 L31.1141481,47.7428413 C31.1141481,44.9071988 33.4210488,42.598352 36.2543011,42.598352 L45.928069,42.598352 C47.6119831,42.598352 49.0985154,43.4255859 50.0360793,44.6828991 L50.0360793,52.3749395 Z"/>
    <path fill="#FFFFFF" d="M32.7383532,52.3749395 L18.1399346,52.3749395 L18.1399346,48.8012394 C18.1399346,46.6135189 19.9197266,44.8322254 22.105603,44.8322254 L29.568991,44.8322254 C30.8681439,44.8322254 32.0150153,45.4704429 32.7383532,46.4404699 L32.7383532,52.3749395 Z"/>
  </g>
</svg>
