<?xml version="1.0" encoding="UTF-8"?>
<svg width="198px" height="70px" viewBox="0 0 198 70" version="1.1" xmlns="http://www.w3.org/2000/svg" xmlns:xlink="http://www.w3.org/1999/xlink">
    <!-- Generator: Sketch 46.2 (44496) - http://www.bohemiancoding.com/sketch -->
    <title>Group 10</title>
    <desc>Created with Sketch.</desc>
    <defs>
        <polygon id="path-1" points="121.294631 10.0220635 121.294631 0.105394549 0.00177346597 0.105394549 0.00177346597 10.0220635 121.294631 10.0220635"></polygon>
    </defs>
    <g id="Symbols" stroke="none" stroke-width="1" fill="none" fill-rule="evenodd">
        <g id="Header/desktop" transform="translate(-136.000000, -36.000000)">
            <g id="Group-10" transform="translate(136.000000, 36.500000)">
                <g id="Group-3">
                    <g id="Group-2" transform="translate(75.242478, 3.807307)">
                        <path d="M16.8192975,19.9359315 L15.5215027,16.6487679 C14.1001084,17.7031412 12.0607165,18.5714485 10.0213247,18.5714485 C6.62233824,18.5714485 4.89194514,16.0905703 4.89194514,11.2528579 C4.89194514,6.66323323 6.62233824,4.21336602 10.0831244,4.21336602 C12.2461158,4.21336602 14.1310083,4.83358557 15.2125039,5.67088195 L16.7574978,2.38371836 C15.0580046,1.2363122 12.4933148,0.61609265 9.65052615,0.61609265 C3.74864971,0.61609265 0.627762167,4.77156361 0.627762167,11.2838689 C0.627762167,18.2613388 3.77954959,22.1687219 9.65052615,22.1687219 C12.4006152,22.1687219 14.7490058,21.3624365 16.8192975,19.9359315 L16.8192975,19.9359315 Z M23.5863705,21.8586121 L23.5863705,10.3845505 C24.2661678,9.88837487 25.224064,9.45422119 26.2746598,9.45422119 C28.0977525,9.45422119 28.9629491,10.6326383 28.9629491,12.8034067 L28.9629491,21.8586121 L33.0726327,21.8586121 L33.0726327,12.462286 C33.0726327,8.6169248 31.8675375,6.35312346 27.5415547,6.35312346 C25.4094632,6.35312346 24.0189688,7.37648571 23.1846721,8.43085894 C23.3700714,7.96569428 23.5863705,7.12839789 23.5863705,6.07402466 L23.5863705,0.461037763 L19.5384867,0.461037763 L19.5384867,21.8586121 L23.5863705,21.8586121 Z M41.6009986,21.8586121 L41.6009986,6.66323323 L35.8227217,6.66323323 L35.8227217,9.20613337 L37.5840146,9.5782651 L37.5840146,21.8586121 L41.6009986,21.8586121 Z M37.4604151,4.15134407 L41.5391989,4.15134407 L41.5391989,0.461037763 L37.4604151,0.461037763 L37.4604151,4.15134407 Z M49.511367,22.1687219 C50.5619628,22.1687219 51.7361582,21.9206341 51.7361582,21.9206341 L51.7361582,19.0676242 C50.0675648,19.0676242 49.2950679,18.8815583 49.2950679,17.6101082 L49.2950679,0.461037763 L45.3089838,0.461037763 L45.3089838,17.8271851 C45.3089838,20.5251401 46.4213794,22.1687219 49.511367,22.1687219 L49.511367,22.1687219 Z M67.2478962,15.3463069 L57.8234339,15.3463069 C57.8234339,17.7651631 59.1830284,19.0986351 61.7168183,19.0986351 C63.2618121,19.0986351 64.8377059,18.5094266 66.1664005,17.8271851 L66.9388975,20.680195 C65.6720025,21.3624365 63.6017108,22.1687219 61.2224203,22.1687219 C56.5565389,22.1687219 53.77555,19.25369 53.77555,14.2299117 C53.77555,9.54725412 56.031241,6.35312346 60.8825216,6.35312346 C65.4557034,6.35312346 67.2478962,9.76433096 67.2478962,13.5786812 L67.2478962,15.3463069 Z M63.3545118,12.9584616 C63.3545118,11.0047701 62.7674141,9.33017728 60.6662225,9.33017728 C58.6577305,9.33017728 57.8234339,11.1598249 57.8234339,12.9584616 L63.3545118,12.9584616 Z" id="Fill-5" fill="#00499B"></path>
                        <path d="M6.08622451,42.7478916 L4.88802546,47.7866408 L0.627762167,47.7866408 L6.71860734,25.4106166 L13.9743683,25.4106166 L19.8655136,47.7866408 L14.9728675,47.7866408 L13.8079517,42.7478916 L6.08622451,42.7478916 Z M10.7126042,29.2228281 L9.34798859,29.2228281 L6.88502387,39.2340271 L13.0091524,39.2340271 L10.7126042,29.2228281 Z M32.6795868,47.0241985 L32.0139206,43.8418306 C31.3482545,44.1733272 30.4163219,44.4385246 29.5176726,44.4385246 C28.3527569,44.4385246 27.7869406,43.7092319 27.7869406,42.5821433 L27.7869406,34.6262236 L32.1470539,34.6262236 L32.1470539,31.5433047 L27.7869406,31.5433047 L27.7869406,27.3332972 L23.493394,28.7255831 L23.493394,31.5433047 L21.0637126,31.5433047 L21.0637126,34.6262236 L23.493394,34.6262236 L23.493394,42.6815923 C23.493394,46.7590011 25.3905425,48.1181374 28.2861902,48.1181374 C30.0169222,48.1181374 31.7143709,47.5877428 32.6795868,47.0241985 L32.6795868,47.0241985 Z M41.1335467,47.7866408 L41.1335467,31.5433047 L34.9095683,31.5433047 L34.9095683,34.2615773 L36.8067168,34.6593732 L36.8067168,47.7866408 L41.1335467,47.7866408 Z M36.6735836,28.8581818 L41.0669801,28.8581818 L41.0669801,24.9133716 L36.6735836,24.9133716 L36.6735836,28.8581818 Z M58.9733993,40.825211 L48.8219906,40.825211 C48.8219906,43.4108849 50.2864561,44.8363205 53.0156873,44.8363205 C54.6798527,44.8363205 56.3773013,44.2064769 57.8084835,43.4771843 L58.6405662,46.5269535 C57.2759506,47.2562461 55.045969,48.1181374 52.4831544,48.1181374 C47.4573751,48.1181374 44.4618774,45.0020689 44.4618774,39.6318231 C44.4618774,34.6262236 46.8915588,31.211808 52.117038,31.211808 C57.0429675,31.211808 58.9733993,34.8582712 58.9733993,38.9356801 L58.9733993,40.825211 Z M54.7797026,38.2726868 C54.7797026,36.1842579 54.1473198,34.3941759 51.8840549,34.3941759 C49.7206399,34.3941759 48.8219906,36.3500062 48.8219906,38.2726868 L54.7797026,38.2726868 Z M76.8132518,47.7866408 L76.8132518,37.7422921 C76.8132518,33.6317336 75.1823698,31.211808 71.0552397,31.211808 C68.6255583,31.211808 66.8282597,32.305747 65.8963271,33.399686 L65.230661,31.5433047 L62.2351633,31.5433047 L62.2351633,47.7866408 L66.5952766,47.7866408 L66.5952766,35.5212646 C67.3607926,35.0240196 68.3260085,34.5267746 69.457641,34.5267746 C71.4546394,34.5267746 72.386572,35.6870129 72.386572,38.1400881 L72.386572,47.7866408 L76.8132518,47.7866408 Z M86.8648105,31.211808 C88.6288258,31.211808 90.0267247,31.808502 90.9253739,32.802992 C90.6591075,31.8748014 90.5259743,31.0460597 90.5259743,29.8195221 L90.5259743,24.9133716 L94.8528042,24.9133716 L94.8528042,47.7866408 L91.3247736,47.7866408 L90.825524,45.9965588 C90.1598579,46.9910488 88.5955425,48.1181374 86.4986941,48.1181374 C82.804247,48.1181374 79.8420327,45.4661642 79.8420327,39.6649727 C79.8420327,34.2947269 82.904097,31.211808 86.8648105,31.211808 L86.8648105,31.211808 Z M90.5259743,43.5766332 L90.5259743,35.2560672 C89.8603081,34.8582712 88.8285256,34.4604753 87.5637599,34.4604753 C85.5001949,34.4604753 84.2021459,35.8527612 84.2021459,39.6318231 C84.2021459,43.5103339 85.4336283,44.9689192 87.4971933,44.9689192 C88.5955425,44.9689192 89.6938916,44.4385246 90.5259743,43.5766332 L90.5259743,43.5766332 Z M112.659373,40.825211 L102.507965,40.825211 C102.507965,43.4108849 103.97243,44.8363205 106.701661,44.8363205 C108.365827,44.8363205 110.063275,44.2064769 111.494458,43.4771843 L112.32654,46.5269535 C110.961925,47.2562461 108.731943,48.1181374 106.169129,48.1181374 C101.143349,48.1181374 98.1478516,45.0020689 98.1478516,39.6318231 C98.1478516,34.6262236 100.577533,31.211808 105.803012,31.211808 C110.728942,31.211808 112.659373,34.8582712 112.659373,38.9356801 L112.659373,40.825211 Z M108.465677,38.2726868 C108.465677,36.1842579 107.833294,34.3941759 105.570029,34.3941759 C103.406614,34.3941759 102.507965,36.3500062 102.507965,38.2726868 L108.465677,38.2726868 Z" id="Fill-7" fill="#E5002C"></path>
                        <g id="Group-11" transform="translate(0.627762, 52.359869)">
                            <mask id="mask-2" fill="white">
                                <use xlink:href="#path-1"></use>
                            </mask>
                            <g id="Clip-10"></g>
                            <path d="M5.6851561,2.99416333 C5.6851561,5.07810101 4.17149138,5.96916401 2.32938997,5.96916401 L0.701486404,5.96916401 L0.701486404,9.87834365 L0.00177346597,9.87834365 L0.00177346597,0.177254469 L2.32938997,0.177254469 C4.17149138,0.177254469 5.6851561,1.05394549 5.6851561,2.99416333 L5.6851561,2.99416333 Z M4.92832374,2.99416333 C4.92832374,1.42761708 3.78593527,0.780877796 2.24371084,0.780877796 L0.701486404,0.780877796 L0.701486404,5.3511687 L2.24371084,5.3511687 C3.90017412,5.3511687 4.92832374,4.67568545 4.92832374,2.99416333 L4.92832374,2.99416333 Z M11.9111733,6.55841536 L7.0131827,6.55841536 C7.0131827,8.59923708 8.02705247,9.46155612 9.4407582,9.46155612 C10.4403481,9.46155612 11.2685798,8.95853668 11.6826956,8.671097 L11.9111733,9.18848842 C11.3114193,9.56216001 10.4403481,10.0220635 9.39791863,10.0220635 C7.58437694,10.0220635 6.32774962,8.77170089 6.32774962,6.29971964 C6.32774962,4.02894618 7.39873881,2.69235167 9.21228051,2.69235167 C11.1115013,2.69235167 11.9111733,4.28764189 11.9111733,6.05539592 L11.9111733,6.55841536 Z M11.2257402,5.99790798 C11.2257402,4.61819752 10.7402251,3.23848706 9.16944094,3.23848706 C7.64149636,3.23848706 7.0131827,4.61819752 7.0131827,5.99790798 L11.2257402,5.99790798 Z M17.1233207,2.86481547 C17.1233207,2.86481547 16.7806041,2.73546762 16.19513,2.73546762 C15.2954991,2.73546762 14.6529056,3.32471896 14.3387488,3.69839054 L14.1531106,2.83607151 L13.6961553,2.83607151 L13.6961553,9.87834365 L14.3958682,9.87834365 L14.3958682,4.24452593 C14.7957042,3.81336642 15.3811782,3.33909094 16.1237307,3.33909094 C16.5378466,3.33909094 16.8662833,3.39657888 17.0376415,3.4684388 L17.1233207,2.86481547 Z M20.1506501,3.26723102 C20.9360422,3.26723102 21.5072364,3.41095086 22.0784306,3.7415065 L22.3069083,3.20974309 C21.6928745,2.83607151 20.8932026,2.69235167 20.1506501,2.69235167 C18.679825,2.69235167 18.0229516,3.5546707 18.0229516,4.47447768 C18.0229516,6.86022702 21.650035,6.11288385 21.650035,8.03872971 C21.650035,8.91542073 21.0788407,9.4759281 20.0792508,9.4759281 C19.365258,9.4759281 18.6084257,9.08788454 18.2228696,8.80044486 L17.9515523,9.34658025 C18.4370674,9.67713588 19.1938998,10.0220635 20.064971,10.0220635 C21.5072364,10.0220635 22.3354681,9.07351255 22.3354681,8.00998574 C22.3354681,5.59549243 18.6655451,6.18474377 18.6655451,4.48884966 C18.6655451,3.72713451 19.1510602,3.26723102 20.1506501,3.26723102 L20.1506501,3.26723102 Z M29.5039557,6.32846361 C29.5039557,8.69984097 28.3901269,10.0220635 26.6337047,10.0220635 C24.8344428,10.0220635 23.7920134,8.72858494 23.7920134,6.32846361 C23.7920134,4.2732699 24.6773644,2.69235167 26.6337047,2.69235167 C28.4900859,2.69235167 29.5039557,4.23015395 29.5039557,6.32846361 L29.5039557,6.32846361 Z M28.7899629,6.32846361 C28.7899629,4.43136173 28.1330895,3.23848706 26.6337047,3.23848706 C25.1057601,3.23848706 24.4917263,4.48884966 24.4917263,6.32846361 C24.4917263,8.11058963 25.0058011,9.4759281 26.6337047,9.4759281 C28.2044888,9.4759281 28.7899629,8.3117974 28.7899629,6.32846361 L28.7899629,6.32846361 Z M36.4154059,9.87834365 L36.4154059,5.37991267 C36.4154059,3.65527459 35.6728534,2.69235167 34.1020693,2.69235167 C33.04536,2.69235167 32.3028075,3.29597499 31.9172513,3.68401856 L31.7316132,2.83607151 L31.2746578,2.83607151 L31.2746578,9.87834365 L31.9743708,9.87834365 L31.9743708,4.24452593 C32.445606,3.77025046 33.0739197,3.26723102 33.930711,3.26723102 C35.2730175,3.26723102 35.7014132,4.1008061 35.7014132,5.58112044 L35.7014132,9.87834365 L36.4154059,9.87834365 Z M43.0555389,9.87834365 L42.5843037,9.87834365 L42.4272253,8.92979271 C41.9845497,9.4759281 41.1991577,10.0220635 40.2138476,10.0220635 C38.7715822,10.0220635 38.00047,9.0303966 38.00047,7.90938185 C38.00047,6.73087916 38.8572613,5.94042004 40.3994857,5.94042004 L42.3843857,5.94042004 L42.3843857,5.27930878 C42.3843857,3.88522634 41.856031,3.26723102 40.6422433,3.26723102 C39.7283325,3.26723102 38.9715002,3.52592674 38.5002649,3.7415065 L38.3003469,3.20974309 C38.785862,2.99416333 39.5569742,2.69235167 40.7422023,2.69235167 C42.2273073,2.69235167 43.0555389,3.51155475 43.0555389,5.14996093 L43.0555389,9.87834365 Z M42.3843857,8.3980293 L42.3843857,6.48655544 L40.4851649,6.48655544 C39.1000189,6.48655544 38.6716232,7.09017876 38.6716232,7.88063788 C38.6716232,8.81481684 39.185698,9.4759281 40.3566462,9.4759281 C41.170598,9.4759281 41.9274303,8.97290866 42.3843857,8.3980293 L42.3843857,8.3980293 Z M46.9396597,3.26723102 C47.7250518,3.26723102 48.296246,3.41095086 48.8674403,3.7415065 L49.095918,3.20974309 C48.4818842,2.83607151 47.6822122,2.69235167 46.9396597,2.69235167 C45.4688346,2.69235167 44.8119612,3.5546707 44.8119612,4.47447768 C44.8119612,6.86022702 48.4390446,6.11288385 48.4390446,8.03872971 C48.4390446,8.91542073 47.8678504,9.4759281 46.8682605,9.4759281 C46.1542677,9.4759281 45.3974353,9.08788454 45.0118792,8.80044486 L44.7405619,9.34658025 C45.226077,9.67713588 45.9829094,10.0220635 46.8539806,10.0220635 C48.296246,10.0220635 49.1244777,9.07351255 49.1244777,8.00998574 C49.1244777,5.59549243 45.4545547,6.18474377 45.4545547,4.48884966 C45.4545547,3.72713451 45.9400698,3.26723102 46.9396597,3.26723102 L46.9396597,3.26723102 Z M58.7348207,9.87834365 L58.2635854,9.87834365 L58.106507,8.92979271 C57.6638315,9.4759281 56.8784394,10.0220635 55.8931294,10.0220635 C54.4508639,10.0220635 53.6797517,9.0303966 53.6797517,7.90938185 C53.6797517,6.73087916 54.5365431,5.94042004 56.0787675,5.94042004 L58.0636675,5.94042004 L58.0636675,5.27930878 C58.0636675,3.88522634 57.5353128,3.26723102 56.321525,3.26723102 C55.4076143,3.26723102 54.6507819,3.52592674 54.1795467,3.7415065 L53.9796287,3.20974309 C54.4651438,2.99416333 55.236256,2.69235167 56.421484,2.69235167 C57.906589,2.69235167 58.7348207,3.51155475 58.7348207,5.14996093 L58.7348207,9.87834365 Z M58.0636675,8.3980293 L58.0636675,6.48655544 L56.1644466,6.48655544 C54.7793006,6.48655544 54.3509049,7.09017876 54.3509049,7.88063788 C54.3509049,8.81481684 54.8649797,9.4759281 56.0359279,9.4759281 C56.8498797,9.4759281 57.6067121,8.97290866 58.0636675,8.3980293 L58.0636675,8.3980293 Z M67.4883723,9.63401993 L67.3170141,9.13100049 C67.1170961,9.24597636 66.6030213,9.44718413 66.1746256,9.44718413 C65.4320731,9.44718413 65.146476,9.07351255 65.146476,8.18244954 L65.146476,3.35346293 L67.2884544,3.35346293 L67.2884544,2.83607151 L65.146476,2.83607151 L65.146476,1.29826922 L64.446763,1.52822096 L64.446763,2.83607151 L63.3757738,2.83607151 L63.3757738,3.35346293 L64.446763,3.35346293 L64.446763,8.18244954 C64.446763,9.64839191 65.2892745,10.0220635 66.0889465,10.0220635 C66.6458608,10.0220635 67.2884544,9.79211175 67.4883723,9.63401993 L67.4883723,9.63401993 Z M74.057106,9.87834365 L74.057106,2.83607151 L73.3431132,2.83607151 L73.3431132,8.59923708 C72.8433183,9.0303966 72.1436054,9.41844017 71.3724931,9.41844017 C70.101586,9.41844017 69.6160709,8.71421295 69.6160709,7.06143479 L69.6160709,2.83607151 L68.9163579,2.83607151 L68.9163579,7.19078265 C68.9163579,9.10225652 69.8159888,10.0220635 71.2725341,10.0220635 C72.2864039,10.0220635 73.0860758,9.46155612 73.4287924,9.10225652 L73.5287514,9.87834365 L74.057106,9.87834365 Z M81.0113958,3.26723102 C81.7967879,3.26723102 82.3679822,3.41095086 82.9391764,3.7415065 L83.1676541,3.20974309 C82.5536203,2.83607151 81.7539484,2.69235167 81.0113958,2.69235167 C79.5405707,2.69235167 78.8836973,3.5546707 78.8836973,4.47447768 C78.8836973,6.86022702 82.5107807,6.11288385 82.5107807,8.03872971 C82.5107807,8.91542073 81.9395865,9.4759281 80.9399966,9.4759281 C80.2260038,9.4759281 79.4691714,9.08788454 79.0836153,8.80044486 L78.812298,9.34658025 C79.2978131,9.67713588 80.0546455,10.0220635 80.9257167,10.0220635 C82.3679822,10.0220635 83.1962138,9.07351255 83.1962138,8.00998574 C83.1962138,5.59549243 79.5262908,6.18474377 79.5262908,4.48884966 C79.5262908,3.72713451 80.0118059,3.26723102 81.0113958,3.26723102 L81.0113958,3.26723102 Z M90.2504626,6.55841536 L85.352472,6.55841536 C85.352472,8.59923708 86.3663418,9.46155612 87.7800475,9.46155612 C88.7796374,9.46155612 89.6078691,8.95853668 90.0219849,8.671097 L90.2504626,9.18848842 C89.6507087,9.56216001 88.7796374,10.0220635 87.737208,10.0220635 C85.9236663,10.0220635 84.667039,8.77170089 84.667039,6.29971964 C84.667039,4.02894618 85.7380281,2.69235167 87.5515698,2.69235167 C89.4507907,2.69235167 90.2504626,4.28764189 90.2504626,6.05539592 L90.2504626,6.55841536 Z M89.5650295,5.99790798 C89.5650295,4.61819752 89.0795144,3.23848706 87.5087303,3.23848706 C85.9807857,3.23848706 85.352472,4.61819752 85.352472,5.99790798 L89.5650295,5.99790798 Z M95.46261,2.86481547 C95.46261,2.86481547 95.1198935,2.73546762 94.5344194,2.73546762 C93.6347884,2.73546762 92.9921949,3.32471896 92.6780381,3.69839054 L92.4924,2.83607151 L92.0354446,2.83607151 L92.0354446,9.87834365 L92.7351575,9.87834365 L92.7351575,4.24452593 C93.1349935,3.81336642 93.7204676,3.33909094 94.4630201,3.33909094 C94.8771359,3.33909094 95.2055726,3.39657888 95.3769309,3.4684388 L95.46261,2.86481547 Z M101.674347,2.83607151 L100.931795,2.83607151 L98.8469358,9.43281215 L98.8183761,9.43281215 L96.7192373,2.83607151 L95.962405,2.83607151 L98.2757416,9.87834365 L99.3324509,9.87834365 L101.674347,2.83607151 Z M104.101923,9.87834365 L104.101923,2.83607151 L102.673937,2.83607151 L102.673937,3.31034698 L103.43077,3.45406682 L103.43077,9.87834365 L104.101923,9.87834365 Z M103.316531,0.982085572 L104.101923,0.982085572 L104.101923,0.105394549 L103.316531,0.105394549 L103.316531,0.982085572 Z M110.899134,8.82918882 C110.399339,9.15974446 109.713906,9.44718413 108.799995,9.44718413 C107.40057,9.44718413 106.543778,8.51300518 106.543778,6.35720758 C106.543778,4.47447768 107.37201,3.28160301 108.771436,3.28160301 C109.542548,3.28160301 110.199421,3.42532285 110.770615,3.77025046 L110.999093,3.23848706 C110.385059,2.85044349 109.499708,2.69235167 108.771436,2.69235167 C107.172092,2.69235167 105.872625,3.92834229 105.872625,6.35720758 C105.872625,9.04476858 107.172092,10.0220635 108.799995,10.0220635 C109.799585,10.0220635 110.613537,9.66276389 111.056213,9.3896962 L110.899134,8.82918882 Z M113.812225,9.87834365 L113.812225,2.83607151 L112.384239,2.83607151 L112.384239,3.31034698 L113.141072,3.45406682 L113.141072,9.87834365 L113.812225,9.87834365 Z M113.026833,0.982085572 L113.812225,0.982085572 L113.812225,0.105394549 L113.026833,0.105394549 L113.026833,0.982085572 Z M121.294869,6.32846361 C121.294869,8.69984097 120.181041,10.0220635 118.424618,10.0220635 C116.625356,10.0220635 115.582927,8.72858494 115.582927,6.32846361 C115.582927,4.2732699 116.468278,2.69235167 118.424618,2.69235167 C120.281,2.69235167 121.294869,4.23015395 121.294869,6.32846361 L121.294869,6.32846361 Z M120.580876,6.32846361 C120.580876,4.43136173 119.924003,3.23848706 118.424618,3.23848706 C116.896674,3.23848706 116.28264,4.48884966 116.28264,6.32846361 C116.28264,8.11058963 116.796715,9.4759281 118.424618,9.4759281 C119.995402,9.4759281 120.580876,8.3117974 120.580876,6.32846361 L120.580876,6.32846361 Z" id="Fill-9" fill="#00499B" mask="url(#mask-2)"></path>
                        </g>
                    </g>
                    <g id="Group">
                        <path d="M4,0.00106967448 L30.4584524,0.00106967448 L30.4584524,68.5325876 L0,68.5325876 L0,4.00106967 L0,4.00106967 C-2.705415e-16,1.79193068 1.790861,0.00106967448 4,0.00106967448 Z" id="Rectangle-2" fill="#00499B"></path>
                        <path d="M30.4584524,0.00106967448 L61.4721899,0.00106967448 L61.4721899,0.00106967448 C63.6813289,0.00106967448 65.4721899,1.79193068 65.4721899,4.00106967 L65.4721899,68.5325876 L30.4584524,68.5325876 L30.4584524,0.00106967448 Z" id="Rectangle-2-Copy" fill="#E5002C"></path>
                        <polygon id="Path" fill="#FFFFFF" points="24.0063963 13.326172 39.9376702 8.87691584 42.2896173 0 48.771551 0 54.4312373 7.33199842 65.4721899 7.33199842 65.4721899 13.5699669 61.1537741 18.8248061 65.4721899 29.9307219 65.4721899 32.8456605 51.4499153 28.5103519 35.9237411 38.2833458 35.9237411 23.4436587"></polygon>
                        <path d="M27.4725396,49.2608478 C27.4725396,46.0864661 30.0565824,43.5044016 33.2300827,43.5044016 C36.4057582,43.5044016 38.9876259,46.0864661 38.9876259,49.2608478 C38.9876259,52.4352296 36.4057582,55.0194878 33.2300827,55.0194878 C30.0565824,55.0194878 27.4725396,52.4352296 27.4725396,49.2608478 Z" id="Fill-1-Copy" fill="#FEFEFE"></path>
                        <path d="M53.4406852,53.2541625 C49.3135054,53.2541625 45.9552769,49.8964461 45.9552769,45.7675567 C45.9552769,41.6410622 49.3135054,38.2833458 53.4406852,38.2833458 C57.567865,38.2833458 60.9260935,41.6410622 60.9260935,45.7675567 C60.9260935,49.8964461 57.567865,53.2541625 53.4406852,53.2541625" id="Fill-3-Copy" fill="#FEFEFE"></path>
                        <path d="M65.4721899,68.5325876 L40.7128504,68.5325876 L40.7128504,62.4714889 C40.7128504,58.7610518 43.731429,55.7399267 47.4387386,55.7399267 L60.0968601,55.7399267 C62.3002611,55.7399267 64.2453879,56.8223619 65.4721899,58.4675557 L65.4721899,68.5325876 Z" id="Path" fill="#FFFFFF"></path>
                        <path d="M42.8381221,68.5325876 L23.7360973,68.5325876 L23.7360973,63.8564024 C23.7360973,60.993771 26.0649544,58.6629492 28.9251728,58.6629492 L38.691013,58.6629492 C40.3909541,58.6629492 41.8916348,59.4980565 42.8381221,60.7673364 L42.8381221,68.5325876 Z" id="Path-Copy" fill="#FFFFFF"></path>
                    </g>
                </g>
            </g>
        </g>
    </g>
</svg>