<?xml version="1.0" encoding="UTF-8"?>
<svg width="24px" height="17px" viewBox="0 0 24 17" version="1.1" xmlns="http://www.w3.org/2000/svg" xmlns:xlink="http://www.w3.org/1999/xlink">
    <!-- Generator: Sketch 47.1 (45422) - http://www.bohemiancoding.com/sketch -->
    <title>Page 1</title>
    <desc>Created with Sketch.</desc>
    <defs></defs>
    <g id="Page-1" stroke="none" stroke-width="1" fill="none" fill-rule="evenodd">
        <g id="Mi-ChileAtiende-Portada-1.0" transform="translate(-967.000000, -124.000000)" fill="#FFFFFF">
            <g id="Page-1" transform="translate(967.000000, 124.000000)">
                <path d="M24,14.9628062 C23.9045511,15.3228514 23.8164452,15.6817063 23.553346,16 L14,8.4987792 L23.5495868,1 C23.8139046,1.31594368 23.904454,1.68432083 23.999906,2.06344104 L24,14.9628062 Z" id="Fill-1"></path>
                <path d="M0,1.86400924 C0.0967498355,1.58629762 0.199701136,1.30859209 0.310092288,1 L10,8.50167102 L0.315172854,16 C0.202298575,15.7032995 0.0968673236,15.4350732 0.000117488067,15.1692289 L0,1.86400924 Z" id="Fill-2"></path>
                <path d="M12.0000763,9 L1,0.33217169 C1.34560772,0.0866834954 1.71983303,0.00174461564 2.11788599,0.00174461564 C3.74701392,-0.000581538546 5.37504351,-0.000581538546 7.00423245,0.00174461564 L21.7343582,0.00174461564 C22.1764969,0.00174461564 22.5959978,0.0599163409 23,0.33217169 L12.0000763,9 Z" id="Fill-3"></path>
                <path d="M13.6935602,9 L23,16.6156492 C22.6697636,16.870949 22.2631944,17.005819 21.8471332,16.9998074 L17.0043784,16.9998074 L2.26612996,16.9998074 C1.81307738,16.9998074 1.39579533,16.905875 1,16.6168515 C1.26467439,16.3976769 1.51504057,16.1905503 1.7654037,15.9858159 C4.55519917,13.694123 7.34859611,11.4000255 10.1406501,9.10481807 C10.2896777,8.98439444 10.3743244,8.99763851 10.510228,9.11445208 C10.8798058,9.43719924 11.2637285,9.74428535 11.6428289,10.0561808 C11.9337299,10.2946234 12.060111,10.2922126 12.3581783,10.0525676 C12.7826022,9.71055243 13.2070262,9.36733492 13.6291,9.02294591 C13.6505593,9.01331189 13.6720216,9.00488329 13.6934809,9.00006474 L13.6935602,9 Z" id="Fill-4"></path>
            </g>
        </g>
    </g>
</svg>