<?xml version="1.0" encoding="UTF-8"?>
<svg width="19px" height="19px" viewBox="0 0 19 19" version="1.1" xmlns="http://www.w3.org/2000/svg" xmlns:xlink="http://www.w3.org/1999/xlink">
    <!-- Generator: Sketch 46.2 (44496) - http://www.bohemiancoding.com/sketch -->
    <title>Group 5</title>
    <desc>Created with Sketch.</desc>
    <defs></defs>
    <g id="Page-1" stroke="none" stroke-width="1" fill="none" fill-rule="evenodd">
        <g id="Qué-es-ChileAtiende" transform="translate(-935.000000, -625.000000)">
            <g id="Group-8" transform="translate(935.000000, 625.000000)">
                <g id="Group-5" transform="translate(0.000000, 0.296875)">
                    <circle id="Oval-6-Copy" fill="#ED3232" cx="9.60828944" cy="9.33855735" r="9.25"></circle>
                    <path d="M13.9151682,8.73993251 C13.9151682,7.67818578 13.5194211,6.80172168 12.7278892,6.11072869 C11.9393354,5.35678108 10.9781653,4.97980727 9.84385109,4.97980727 C8.53697715,4.97980727 7.470424,5.40869037 6.64438015,6.2660419 C5.74906707,7.0892019 5.30141068,8.11962211 5.30141068,9.35732136 C5.30141068,10.0829205 5.45676158,10.7381764 5.76784037,11.3224858 C6.04099587,11.9759322 6.47134917,12.4909161 7.0588817,12.8678899 C7.85074345,13.4208347 8.79465759,13.6973074 9.89099167,13.6973074 C10.9589585,13.6973074 11.9581275,13.4727441 12.8880277,13.0236178 L12.9399351,13.0236178 L12.675978,12.2505294 L12.576947,12.2505294 C11.647028,12.6967156 10.7517341,12.9198087 9.89100863,12.9198087 C8.99901321,12.9198087 8.26201057,12.6967156 7.68109393,12.2505294 C7.19736114,11.9081617 6.81706996,11.4778084 6.54055968,10.9594883 C6.29869328,10.4790635 6.17793915,9.94486331 6.17793915,9.35734963 C6.17793915,8.36157332 6.54055968,7.52111022 7.26616828,6.8363373 C8.01643098,6.13466653 8.87386733,5.77826607 9.83910876,5.76686261 C10.8039732,5.75765879 11.5781832,6.04517295 12.1623983,6.6290394 C12.8158447,7.21033301 13.1423417,7.94844773 13.1423417,8.84376052 C13.1423417,9.39338833 13.0042939,9.89297287 12.7278213,10.3420429 C12.4922127,10.8228353 12.2186899,11.0632221 11.9076112,11.0632221 C11.6311386,11.0632221 11.4930908,10.8920383 11.4930908,10.5496707 L11.4930908,10.3420429 L11.9076112,7.14737839 L11.082981,7.14737839 L10.9795299,7.76474839 C10.6371623,7.31856219 10.1563699,7.09546909 9.53751087,7.09546909 C8.88112407,7.09546909 8.32968679,7.31856219 7.88344404,7.76474839 C7.47186404,8.24517323 7.26607404,8.82979364 7.26607404,9.51748811 C7.26607404,10.1709345 7.43725785,10.720977 7.77999301,11.1667485 C8.22581166,11.6162427 8.74118197,11.840806 9.32539713,11.840806 C9.87834231,11.840806 10.3605672,11.5989396 10.7722226,11.1152068 C10.9794828,11.5989396 11.3045473,11.840806 11.7474538,11.840806 C12.300399,11.840806 12.8187192,11.5311974 13.3024708,10.9123572 C13.711101,10.3248058 13.9150532,9.60105377 13.9150532,8.73995136 L13.9151682,8.73993251 Z M9.51397828,8.11816133 C9.81180643,8.14650788 10.0555106,8.2378034 10.244365,8.39131655 C10.4332195,8.54482971 10.5558114,8.82903027 10.6117637,9.24429519 C10.6680892,9.6625005 10.5281961,10.086596 10.1924557,10.5165818 C10.0260595,10.7805388 9.75437447,10.9123289 9.37740067,10.9123289 C9.06963925,10.9123289 8.82924305,10.7742811 8.6562215,10.4978085 C8.4489613,10.2559421 8.34551026,9.94633351 8.34551026,9.5693597 C8.34551026,9.12023311 8.46625497,8.75908278 8.70813079,8.48556001 C8.95036474,8.21240479 9.21874182,8.0898129 9.5139877,8.11816133 L9.51397828,8.11816133 Z" id="Page-1" fill="#FFFFFF"></path>
                </g>
            </g>
        </g>
    </g>
</svg>