<?xml version="1.0" encoding="UTF-8"?>
<svg width="19px" height="19px" viewBox="0 0 19 19" version="1.1" xmlns="http://www.w3.org/2000/svg" xmlns:xlink="http://www.w3.org/1999/xlink">
    <!-- Generator: Sketch 46.2 (44496) - http://www.bohemiancoding.com/sketch -->
    <title>Group 3</title>
    <desc>Created with Sketch.</desc>
    <defs></defs>
    <g id="Page-1" stroke="none" stroke-width="1" fill="none" fill-rule="evenodd">
        <g id="Qué-es-ChileAtiende" transform="translate(-535.000000, -626.000000)">
            <g id="Group-7" transform="translate(535.000000, 625.000000)">
                <g id="Group-3" transform="translate(0.000000, 0.894531)">
                    <circle id="Oval-6" fill="#ED3232" cx="9.60828944" cy="9.648075" r="9.25"></circle>
                    <path d="M9.60828944,5.38441152 C7.8734919,5.38441152 6.47945573,6.7779016 6.47945573,8.51324523 C6.47945573,10.2480428 9.60828944,14.4861257 9.60828944,14.4861257 C9.60828944,14.4861257 12.7371232,10.2480428 12.7371232,8.51324523 C12.7371232,6.7779016 11.343087,5.38441152 9.60828944,5.38441152 Z M9.60828944,9.93499557 C8.81208741,9.93499557 8.18599301,9.30944726 8.18599301,8.51269914 C8.18599301,7.7164971 8.81154132,7.09040271 9.60828944,7.09040271 C10.4044915,7.09040271 11.0305859,7.71595101 11.0305859,8.51269914 C11.0305859,9.30943361 10.4045051,9.93499557 9.60828944,9.93499557 Z" id="Page-1" fill="#FFFFFF"></path>
                </g>
            </g>
        </g>
    </g>
</svg>