<?xml version="1.0" encoding="UTF-8"?>
<svg width="40px" height="41px" viewBox="0 0 40 41" version="1.1" xmlns="http://www.w3.org/2000/svg" xmlns:xlink="http://www.w3.org/1999/xlink">
    <!-- Generator: Sketch 46.2 (44496) - http://www.bohemiancoding.com/sketch -->
    <title>twitter</title>
    <desc>Created with Sketch.</desc>
    <defs></defs>
    <g id="Symbols" stroke="none" stroke-width="1" fill="none" fill-rule="evenodd">
        <g id="helpcenter/sidebar" transform="translate(0.000000, -268.000000)" fill-rule="nonzero" fill="#00ACED">
            <g id="twitter" transform="translate(0.000000, 268.601122)">
                <path d="M0,4 L0,35.8965554 L0,35.8965554 C4.19476067e-15,38.1056944 1.790861,39.8965554 4,39.8965554 L35.8965554,39.8965554 L35.8965554,39.8965554 C38.1056944,39.8965554 39.8965554,38.1056944 39.8965554,35.8965554 L39.8965554,4 L39.8965554,4 C39.8965554,1.790861 38.1056944,3.51840692e-15 35.8965554,0 L4,0 L4,0 C1.790861,4.05812251e-16 -2.705415e-16,1.790861 0,4 Z M30.9308787,14.3153225 C30.9416639,14.5584723 30.947188,14.8029373 30.947188,15.0483669 C30.947188,22.5369065 25.2475048,31.1714856 14.8243324,31.1714856 C11.6241902,31.1714856 8.6455397,30.233522 6.13784391,28.6253839 C6.58117794,28.6780824 7.03214054,28.7049139 7.4896795,28.7049139 C10.144598,28.7049139 12.5879332,27.7990429 14.5274319,26.2788526 C12.0477075,26.2333443 9.9548482,24.5949549 9.23364123,22.3435616 C9.57982058,22.409939 9.93485608,22.445539 10.2999753,22.445539 C10.8167892,22.445539 11.317469,22.3759173 11.7929833,22.24667 C9.20075946,21.7259104 7.24731889,19.4357604 7.24731889,16.6902636 C7.24731889,16.6663257 7.24731889,16.6425631 7.24784499,16.6188882 C8.01175442,17.0432823 8.88544514,17.2982696 9.81446493,17.3277316 C8.29383622,16.3115532 7.29370411,14.5769737 7.29370411,12.6111696 C7.29370411,11.5725439 7.57315537,10.5992433 8.06103325,9.76211714 C10.8558089,13.190678 15.031356,15.4465433 19.7409033,15.6831167 C19.644187,15.2681925 19.593856,14.8356437 19.593856,14.3916082 C19.593856,11.2623153 22.1312769,8.72515744 25.2605698,8.72515744 C26.8905414,8.72515744 28.3632942,9.41321958 29.3969219,10.5144522 C30.6875535,10.2606049 31.9004088,9.7887733 32.9953281,9.13946783 C32.572337,10.4628059 31.6738315,11.57307 30.5037663,12.2745479 C31.6501566,12.1374967 32.7421823,11.8327922 33.7584484,11.3820927 C32.9989232,12.5183992 32.0382492,13.5165145 30.9308787,14.3153225 Z" id="Shape"></path>
            </g>
        </g>
    </g>
</svg>