<?xml version="1.0" encoding="UTF-8"?>
<svg width="30px" height="31px" viewBox="0 0 30 31" version="1.1" xmlns="http://www.w3.org/2000/svg" xmlns:xlink="http://www.w3.org/1999/xlink">
    <!-- Generator: Sketch 46.2 (44496) - http://www.bohemiancoding.com/sketch -->
    <title>twitter</title>
    <desc>Created with Sketch.</desc>
    <defs></defs>
    <g id="Symbols" stroke="none" stroke-width="1" fill="none" fill-rule="evenodd">
        <g id="Footer" transform="translate(-1275.000000, -271.000000)" fill-rule="nonzero" fill="#FFFFFF">
            <g id="twitter" transform="translate(1275.000000, 271.018889)">
                <path d="M0,4 L0,26 L0,26 C2.705415e-16,28.209139 1.790861,30 4,30 L26,30 L26,30 C28.209139,30 30,28.209139 30,26 L30,4 L30,4 C30,1.790861 28.209139,-4.05812251e-16 26,0 L4,0 L4,0 C1.790861,4.05812251e-16 -2.705415e-16,1.790861 0,4 Z M23.2583077,10.7643297 C23.2664176,10.9471648 23.2705714,11.130989 23.2705714,11.3155385 C23.2705714,16.9465055 18.9847253,23.4392308 11.1470769,23.4392308 C8.74074725,23.4392308 6.50096703,22.7339341 4.61531868,21.5247033 C4.94868132,21.5643297 5.28778022,21.5845055 5.63182418,21.5845055 C7.62817582,21.5845055 9.46542857,20.9033407 10.9238242,19.7602418 C9.05920879,19.726022 7.48549451,18.494044 6.94318681,16.8011209 C7.20349451,16.851033 7.47046154,16.8778022 7.74501099,16.8778022 C8.13362637,16.8778022 8.51010989,16.8254505 8.86767033,16.7282637 C6.91846154,16.3366813 5.44958242,14.6146154 5.44958242,12.5501538 C5.44958242,12.5321538 5.44958242,12.5142857 5.44997802,12.4964835 C6.0243956,12.8156044 6.68136264,13.0073407 7.37993407,13.0294945 C6.23650549,12.2653846 5.48446154,10.9610769 5.48446154,9.4829011 C5.48446154,8.70191209 5.69459341,7.97004396 6.06145055,7.34057143 C8.16296703,9.91865934 11.3027473,11.6149451 14.8440659,11.7928352 C14.7713407,11.4808352 14.7334945,11.1555824 14.7334945,10.8216923 C14.7334945,8.46863736 16.6414945,6.56083516 18.9945495,6.56083516 C20.2201978,6.56083516 21.3276264,7.07821978 22.1048571,7.90628571 C23.0753407,7.71540659 23.9873407,7.36061538 24.8106593,6.87237363 C24.4925934,7.86745055 23.816967,8.70230769 22.9371429,9.22978022 C23.7991648,9.12672527 24.6203077,8.8976044 25.3844835,8.5587033 C24.8133626,9.41314286 24.090989,10.1636703 23.2583077,10.7643297 Z" id="Shape"></path>
            </g>
        </g>
    </g>
</svg>